<mxfile host="app.diagrams.net" modified="2022-12-26T23:47:35.577Z" agent="5.0 (Macintosh; Intel Mac OS X 10_15_7) AppleWebKit/537.36 (KHTML, like Gecko) Chrome/108.0.0.0 Safari/537.36 Edg/108.0.1462.54" etag="pa4-GlbaBZLH8wpZoe6W" version="20.7.4" type="github" pages="4">
  <diagram id="R2lEEEUBdFMjLlhIrx00" name="Sales-Service">
    <mxGraphModel dx="2074" dy="1156" grid="1" gridSize="10" guides="1" tooltips="1" connect="1" arrows="1" fold="1" page="1" pageScale="1" pageWidth="1169" pageHeight="827" math="0" shadow="0" extFonts="Permanent Marker^https://fonts.googleapis.com/css?family=Permanent+Marker">
      <root>
        <mxCell id="0" />
        <mxCell id="1" parent="0" />
        <mxCell id="C-vyLk0tnHw3VtMMgP7b-12" value="" style="endArrow=ERzeroToMany;startArrow=diamond;endFill=1;startFill=0;exitX=0.25;exitY=0;exitDx=0;exitDy=0;entryX=0.5;entryY=1;entryDx=0;entryDy=0;strokeWidth=2;strokeColor=#6e8ebf;" parent="1" source="C-vyLk0tnHw3VtMMgP7b-2" target="WA9UghRw6gRbrNqhcR1E-102" edge="1">
          <mxGeometry width="100" height="100" relative="1" as="geometry">
            <mxPoint x="430" y="360" as="sourcePoint" />
            <mxPoint x="260" y="280" as="targetPoint" />
          </mxGeometry>
        </mxCell>
        <mxCell id="OE3xt_lgJofFsbn4dfdl-23" value="" style="rounded=1;jumpStyle=arc;orthogonalLoop=1;jettySize=auto;html=1;strokeColor=#6d8ebf;endArrow=ERzeroToMany;endFill=0;startArrow=ERzeroToOne;startFill=0;entryX=0.25;entryY=1;entryDx=0;entryDy=0;edgeStyle=orthogonalEdgeStyle;strokeWidth=2;fillColor=#cce5ff;" parent="1" target="LE-aH9tgaGi0Yq5PgmA7-1" edge="1">
          <mxGeometry relative="1" as="geometry">
            <mxPoint x="770" y="320" as="sourcePoint" />
            <mxPoint x="640" y="270" as="targetPoint" />
          </mxGeometry>
        </mxCell>
        <mxCell id="WA9UghRw6gRbrNqhcR1E-86" style="edgeStyle=orthogonalEdgeStyle;rounded=1;jumpStyle=arc;orthogonalLoop=1;jettySize=auto;html=1;entryX=0.25;entryY=0;entryDx=0;entryDy=0;strokeColor=#6e8ebf;strokeWidth=2;startArrow=ERmandOne;startFill=0;endArrow=ERzeroToMany;endFill=0;" parent="1" target="WA9UghRw6gRbrNqhcR1E-83" edge="1">
          <mxGeometry relative="1" as="geometry">
            <mxPoint x="750" y="400" as="sourcePoint" />
            <Array as="points">
              <mxPoint x="750" y="430" />
              <mxPoint x="780" y="430" />
              <mxPoint x="780" y="540" />
              <mxPoint x="815" y="540" />
            </Array>
          </mxGeometry>
        </mxCell>
        <mxCell id="WA9UghRw6gRbrNqhcR1E-121" style="edgeStyle=orthogonalEdgeStyle;rounded=1;jumpStyle=arc;orthogonalLoop=1;jettySize=auto;html=1;exitX=0;exitY=0;exitDx=0;exitDy=0;entryX=0.75;entryY=1;entryDx=0;entryDy=0;strokeColor=#6e8ebf;strokeWidth=2;startArrow=ERzeroToOne;startFill=0;endArrow=ERzeroToMany;endFill=0;" parent="1" source="C-vyLk0tnHw3VtMMgP7b-2" target="WA9UghRw6gRbrNqhcR1E-119" edge="1">
          <mxGeometry relative="1" as="geometry" />
        </mxCell>
        <mxCell id="WA9UghRw6gRbrNqhcR1E-131" style="edgeStyle=orthogonalEdgeStyle;rounded=1;jumpStyle=arc;orthogonalLoop=1;jettySize=auto;html=1;exitX=1;exitY=0.75;exitDx=0;exitDy=0;entryX=0.5;entryY=0;entryDx=0;entryDy=0;strokeColor=#6e8ebf;strokeWidth=2;startArrow=ERzeroToOne;startFill=0;endArrow=ERzeroToMany;endFill=0;" parent="1" source="C-vyLk0tnHw3VtMMgP7b-2" target="WA9UghRw6gRbrNqhcR1E-128" edge="1">
          <mxGeometry relative="1" as="geometry" />
        </mxCell>
        <mxCell id="C-vyLk0tnHw3VtMMgP7b-2" value="Account" style="shape=table;startSize=30;container=1;collapsible=1;childLayout=tableLayout;fixedRows=1;rowLines=0;fontStyle=1;align=center;resizeLast=1;fillColor=#cce5ff;strokeColor=#36393d;" parent="1" vertex="1">
          <mxGeometry x="520" y="280" width="250" height="120" as="geometry" />
        </mxCell>
        <mxCell id="C-vyLk0tnHw3VtMMgP7b-3" value="" style="shape=partialRectangle;collapsible=0;dropTarget=0;pointerEvents=0;fillColor=none;points=[[0,0.5],[1,0.5]];portConstraint=eastwest;top=0;left=0;right=0;bottom=1;" parent="C-vyLk0tnHw3VtMMgP7b-2" vertex="1">
          <mxGeometry y="30" width="250" height="30" as="geometry" />
        </mxCell>
        <mxCell id="C-vyLk0tnHw3VtMMgP7b-4" value="PK" style="shape=partialRectangle;overflow=hidden;connectable=0;fillColor=none;top=0;left=0;bottom=0;right=0;fontStyle=1;" parent="C-vyLk0tnHw3VtMMgP7b-3" vertex="1">
          <mxGeometry width="30" height="30" as="geometry">
            <mxRectangle width="30" height="30" as="alternateBounds" />
          </mxGeometry>
        </mxCell>
        <mxCell id="C-vyLk0tnHw3VtMMgP7b-5" value="AccountId" style="shape=partialRectangle;overflow=hidden;connectable=0;fillColor=none;top=0;left=0;bottom=0;right=0;align=left;spacingLeft=6;fontStyle=5;" parent="C-vyLk0tnHw3VtMMgP7b-3" vertex="1">
          <mxGeometry x="30" width="220" height="30" as="geometry">
            <mxRectangle width="220" height="30" as="alternateBounds" />
          </mxGeometry>
        </mxCell>
        <mxCell id="C-vyLk0tnHw3VtMMgP7b-6" value="" style="shape=partialRectangle;collapsible=0;dropTarget=0;pointerEvents=0;fillColor=none;points=[[0,0.5],[1,0.5]];portConstraint=eastwest;top=0;left=0;right=0;bottom=0;" parent="C-vyLk0tnHw3VtMMgP7b-2" vertex="1">
          <mxGeometry y="60" width="250" height="30" as="geometry" />
        </mxCell>
        <mxCell id="C-vyLk0tnHw3VtMMgP7b-7" value="" style="shape=partialRectangle;overflow=hidden;connectable=0;fillColor=none;top=0;left=0;bottom=0;right=0;" parent="C-vyLk0tnHw3VtMMgP7b-6" vertex="1">
          <mxGeometry width="30" height="30" as="geometry">
            <mxRectangle width="30" height="30" as="alternateBounds" />
          </mxGeometry>
        </mxCell>
        <mxCell id="C-vyLk0tnHw3VtMMgP7b-8" value="RT: Consumer Account&#xa;RT: Corporate Account" style="shape=partialRectangle;overflow=hidden;connectable=0;fillColor=none;top=0;left=0;bottom=0;right=0;align=left;spacingLeft=6;" parent="C-vyLk0tnHw3VtMMgP7b-6" vertex="1">
          <mxGeometry x="30" width="220" height="30" as="geometry">
            <mxRectangle width="220" height="30" as="alternateBounds" />
          </mxGeometry>
        </mxCell>
        <mxCell id="C-vyLk0tnHw3VtMMgP7b-23" value="Contact" style="shape=table;startSize=30;container=1;collapsible=1;childLayout=tableLayout;fixedRows=1;rowLines=0;fontStyle=1;align=center;resizeLast=1;fillColor=#cce5ff;strokeColor=#36393d;" parent="1" vertex="1">
          <mxGeometry x="520" y="50" width="250" height="100" as="geometry" />
        </mxCell>
        <mxCell id="C-vyLk0tnHw3VtMMgP7b-24" value="" style="shape=partialRectangle;collapsible=0;dropTarget=0;pointerEvents=0;fillColor=none;points=[[0,0.5],[1,0.5]];portConstraint=eastwest;top=0;left=0;right=0;bottom=1;" parent="C-vyLk0tnHw3VtMMgP7b-23" vertex="1">
          <mxGeometry y="30" width="250" height="30" as="geometry" />
        </mxCell>
        <mxCell id="C-vyLk0tnHw3VtMMgP7b-25" value="PK" style="shape=partialRectangle;overflow=hidden;connectable=0;fillColor=none;top=0;left=0;bottom=0;right=0;fontStyle=1;" parent="C-vyLk0tnHw3VtMMgP7b-24" vertex="1">
          <mxGeometry width="30" height="30" as="geometry">
            <mxRectangle width="30" height="30" as="alternateBounds" />
          </mxGeometry>
        </mxCell>
        <mxCell id="C-vyLk0tnHw3VtMMgP7b-26" value="ContactId" style="shape=partialRectangle;overflow=hidden;connectable=0;fillColor=none;top=0;left=0;bottom=0;right=0;align=left;spacingLeft=6;fontStyle=5;" parent="C-vyLk0tnHw3VtMMgP7b-24" vertex="1">
          <mxGeometry x="30" width="220" height="30" as="geometry">
            <mxRectangle width="220" height="30" as="alternateBounds" />
          </mxGeometry>
        </mxCell>
        <mxCell id="C-vyLk0tnHw3VtMMgP7b-27" value="" style="shape=partialRectangle;collapsible=0;dropTarget=0;pointerEvents=0;fillColor=none;points=[[0,0.5],[1,0.5]];portConstraint=eastwest;top=0;left=0;right=0;bottom=0;" parent="C-vyLk0tnHw3VtMMgP7b-23" vertex="1">
          <mxGeometry y="60" width="250" height="30" as="geometry" />
        </mxCell>
        <mxCell id="C-vyLk0tnHw3VtMMgP7b-28" value="" style="shape=partialRectangle;overflow=hidden;connectable=0;fillColor=none;top=0;left=0;bottom=0;right=0;" parent="C-vyLk0tnHw3VtMMgP7b-27" vertex="1">
          <mxGeometry width="30" height="30" as="geometry">
            <mxRectangle width="30" height="30" as="alternateBounds" />
          </mxGeometry>
        </mxCell>
        <mxCell id="C-vyLk0tnHw3VtMMgP7b-29" value="RT: Consumer Contact&#xa;RT: Corporate Contact" style="shape=partialRectangle;overflow=hidden;connectable=0;fillColor=none;top=0;left=0;bottom=0;right=0;align=left;spacingLeft=6;" parent="C-vyLk0tnHw3VtMMgP7b-27" vertex="1">
          <mxGeometry x="30" width="220" height="30" as="geometry">
            <mxRectangle width="220" height="30" as="alternateBounds" />
          </mxGeometry>
        </mxCell>
        <mxCell id="TfYKPDKi9-pqkv6VvDSB-5" value="" style="endArrow=ERzeroToMany;startArrow=ERmandOne;endFill=1;startFill=0;entryX=0.5;entryY=0;entryDx=0;entryDy=0;strokeWidth=2;strokeColor=#6e8ebf;" parent="1" target="WA9UghRw6gRbrNqhcR1E-102" edge="1">
          <mxGeometry width="100" height="100" relative="1" as="geometry">
            <mxPoint x="583" y="150" as="sourcePoint" />
            <mxPoint x="-90" y="220" as="targetPoint" />
          </mxGeometry>
        </mxCell>
        <mxCell id="LE-aH9tgaGi0Yq5PgmA7-1" value="Case" style="shape=table;startSize=30;container=1;collapsible=1;childLayout=tableLayout;fixedRows=1;rowLines=0;fontStyle=1;align=center;resizeLast=1;fillColor=#cce5ff;strokeColor=#36393d;" parent="1" vertex="1">
          <mxGeometry x="780" y="150" width="130" height="125" as="geometry" />
        </mxCell>
        <mxCell id="LE-aH9tgaGi0Yq5PgmA7-2" value="" style="shape=partialRectangle;collapsible=0;dropTarget=0;pointerEvents=0;fillColor=none;points=[[0,0.5],[1,0.5]];portConstraint=eastwest;top=0;left=0;right=0;bottom=1;" parent="LE-aH9tgaGi0Yq5PgmA7-1" vertex="1">
          <mxGeometry y="30" width="130" height="30" as="geometry" />
        </mxCell>
        <mxCell id="LE-aH9tgaGi0Yq5PgmA7-3" value="PK" style="shape=partialRectangle;overflow=hidden;connectable=0;fillColor=none;top=0;left=0;bottom=0;right=0;fontStyle=1;" parent="LE-aH9tgaGi0Yq5PgmA7-2" vertex="1">
          <mxGeometry width="30" height="30" as="geometry">
            <mxRectangle width="30" height="30" as="alternateBounds" />
          </mxGeometry>
        </mxCell>
        <mxCell id="LE-aH9tgaGi0Yq5PgmA7-4" value="CaseId" style="shape=partialRectangle;overflow=hidden;connectable=0;fillColor=none;top=0;left=0;bottom=0;right=0;align=left;spacingLeft=6;fontStyle=5;" parent="LE-aH9tgaGi0Yq5PgmA7-2" vertex="1">
          <mxGeometry x="30" width="100" height="30" as="geometry">
            <mxRectangle width="100" height="30" as="alternateBounds" />
          </mxGeometry>
        </mxCell>
        <mxCell id="LE-aH9tgaGi0Yq5PgmA7-5" value="" style="shape=partialRectangle;collapsible=0;dropTarget=0;pointerEvents=0;fillColor=none;points=[[0,0.5],[1,0.5]];portConstraint=eastwest;top=0;left=0;right=0;bottom=0;" parent="LE-aH9tgaGi0Yq5PgmA7-1" vertex="1">
          <mxGeometry y="60" width="130" height="30" as="geometry" />
        </mxCell>
        <mxCell id="LE-aH9tgaGi0Yq5PgmA7-6" value="FK1" style="shape=partialRectangle;overflow=hidden;connectable=0;fillColor=none;top=0;left=0;bottom=0;right=0;" parent="LE-aH9tgaGi0Yq5PgmA7-5" vertex="1">
          <mxGeometry width="30" height="30" as="geometry">
            <mxRectangle width="30" height="30" as="alternateBounds" />
          </mxGeometry>
        </mxCell>
        <mxCell id="LE-aH9tgaGi0Yq5PgmA7-7" value="ContactId" style="shape=partialRectangle;overflow=hidden;connectable=0;fillColor=none;top=0;left=0;bottom=0;right=0;align=left;spacingLeft=6;" parent="LE-aH9tgaGi0Yq5PgmA7-5" vertex="1">
          <mxGeometry x="30" width="100" height="30" as="geometry">
            <mxRectangle width="100" height="30" as="alternateBounds" />
          </mxGeometry>
        </mxCell>
        <mxCell id="OE3xt_lgJofFsbn4dfdl-14" value="" style="shape=partialRectangle;collapsible=0;dropTarget=0;pointerEvents=0;fillColor=none;points=[[0,0.5],[1,0.5]];portConstraint=eastwest;top=0;left=0;right=0;bottom=0;" parent="LE-aH9tgaGi0Yq5PgmA7-1" vertex="1">
          <mxGeometry y="90" width="130" height="30" as="geometry" />
        </mxCell>
        <mxCell id="OE3xt_lgJofFsbn4dfdl-15" value="FK2" style="shape=partialRectangle;overflow=hidden;connectable=0;fillColor=none;top=0;left=0;bottom=0;right=0;" parent="OE3xt_lgJofFsbn4dfdl-14" vertex="1">
          <mxGeometry width="30" height="30" as="geometry">
            <mxRectangle width="30" height="30" as="alternateBounds" />
          </mxGeometry>
        </mxCell>
        <mxCell id="OE3xt_lgJofFsbn4dfdl-16" value="AccountId" style="shape=partialRectangle;overflow=hidden;connectable=0;fillColor=none;top=0;left=0;bottom=0;right=0;align=left;spacingLeft=6;" parent="OE3xt_lgJofFsbn4dfdl-14" vertex="1">
          <mxGeometry x="30" width="100" height="30" as="geometry">
            <mxRectangle width="100" height="30" as="alternateBounds" />
          </mxGeometry>
        </mxCell>
        <mxCell id="LE-aH9tgaGi0Yq5PgmA7-12" value="" style="endArrow=ERzeroToMany;startArrow=ERzeroToOne;endFill=1;startFill=0;exitX=0.5;exitY=0;exitDx=0;exitDy=0;entryX=0.5;entryY=1;entryDx=0;entryDy=0;fillColor=#dae8fc;gradientColor=#7ea6e0;strokeColor=#6c8ebf;strokeWidth=2;" parent="1" source="C-vyLk0tnHw3VtMMgP7b-2" target="C-vyLk0tnHw3VtMMgP7b-23" edge="1">
          <mxGeometry width="100" height="100" relative="1" as="geometry">
            <mxPoint x="770" y="395" as="sourcePoint" />
            <mxPoint x="600" y="210" as="targetPoint" />
          </mxGeometry>
        </mxCell>
        <mxCell id="WA9UghRw6gRbrNqhcR1E-60" value="CBP" style="edgeLabel;html=1;align=center;verticalAlign=middle;resizable=0;points=[];" parent="LE-aH9tgaGi0Yq5PgmA7-12" vertex="1" connectable="0">
          <mxGeometry x="-0.1231" y="-1" relative="1" as="geometry">
            <mxPoint as="offset" />
          </mxGeometry>
        </mxCell>
        <mxCell id="OE3xt_lgJofFsbn4dfdl-2" value="" style="endArrow=ERzeroToMany;startArrow=ERzeroToOne;endFill=1;startFill=0;rounded=1;strokeColor=#6e8ebf;jumpStyle=arc;exitX=1;exitY=0.5;exitDx=0;exitDy=0;entryX=0.25;entryY=0;entryDx=0;entryDy=0;edgeStyle=orthogonalEdgeStyle;strokeWidth=2;fillColor=#cce5ff;" parent="1" source="C-vyLk0tnHw3VtMMgP7b-27" target="LE-aH9tgaGi0Yq5PgmA7-1" edge="1">
          <mxGeometry width="100" height="100" relative="1" as="geometry">
            <mxPoint x="870" y="110" as="sourcePoint" />
            <mxPoint x="880" y="157.5" as="targetPoint" />
          </mxGeometry>
        </mxCell>
        <mxCell id="WA9UghRw6gRbrNqhcR1E-34" value="Opportunity" style="whiteSpace=wrap;html=1;align=center;fillColor=#cce5ff;strokeColor=#36393d;" parent="1" vertex="1">
          <mxGeometry x="90" y="440" width="100" height="40" as="geometry" />
        </mxCell>
        <mxCell id="WA9UghRw6gRbrNqhcR1E-35" value="Opportunity Product" style="whiteSpace=wrap;html=1;align=center;fillColor=#cce5ff;strokeColor=#36393d;" parent="1" vertex="1">
          <mxGeometry x="90" y="560" width="100" height="40" as="geometry" />
        </mxCell>
        <mxCell id="WA9UghRw6gRbrNqhcR1E-36" value="" style="edgeStyle=orthogonalEdgeStyle;fontSize=12;html=1;endArrow=ERzeroToMany;startArrow=ERzeroToOne;rounded=1;strokeColor=#6c8ebf;jumpStyle=arc;orthogonal=0;snapToPoint=0;entryX=0.5;entryY=0;entryDx=0;entryDy=0;exitX=0;exitY=0.5;exitDx=0;exitDy=0;fillColor=#dae8fc;gradientColor=#7ea6e0;strokeWidth=2;" parent="1" source="C-vyLk0tnHw3VtMMgP7b-6" target="WA9UghRw6gRbrNqhcR1E-34" edge="1">
          <mxGeometry x="-0.9286" width="100" height="100" relative="1" as="geometry">
            <mxPoint x="610" y="420" as="sourcePoint" />
            <mxPoint x="150" y="430" as="targetPoint" />
            <mxPoint as="offset" />
          </mxGeometry>
        </mxCell>
        <mxCell id="WA9UghRw6gRbrNqhcR1E-51" value="Roll-up" style="edgeLabel;html=1;align=center;verticalAlign=middle;resizable=0;points=[];" parent="WA9UghRw6gRbrNqhcR1E-36" vertex="1" connectable="0">
          <mxGeometry x="0.2602" y="-2" relative="1" as="geometry">
            <mxPoint as="offset" />
          </mxGeometry>
        </mxCell>
        <mxCell id="WA9UghRw6gRbrNqhcR1E-38" value="" style="fontSize=12;html=1;endArrow=ERzeroToMany;startArrow=ERzeroToOne;rounded=1;strokeColor=#6c8ebf;jumpStyle=arc;orthogonal=0;snapToPoint=0;exitX=0.5;exitY=1;exitDx=0;exitDy=0;entryX=0.5;entryY=0;entryDx=0;entryDy=0;fillColor=#dae8fc;gradientColor=#7ea6e0;strokeWidth=2;" parent="1" source="WA9UghRw6gRbrNqhcR1E-34" target="WA9UghRw6gRbrNqhcR1E-35" edge="1">
          <mxGeometry x="-0.9286" width="100" height="100" relative="1" as="geometry">
            <mxPoint x="150" y="500" as="sourcePoint" />
            <mxPoint x="180" y="582.5" as="targetPoint" />
            <mxPoint as="offset" />
          </mxGeometry>
        </mxCell>
        <mxCell id="WA9UghRw6gRbrNqhcR1E-52" value="Rollup" style="edgeLabel;html=1;align=center;verticalAlign=middle;resizable=0;points=[];" parent="WA9UghRw6gRbrNqhcR1E-38" vertex="1" connectable="0">
          <mxGeometry x="-0.075" relative="1" as="geometry">
            <mxPoint as="offset" />
          </mxGeometry>
        </mxCell>
        <mxCell id="WA9UghRw6gRbrNqhcR1E-39" value="Quote" style="whiteSpace=wrap;html=1;align=center;fillColor=#d5e8d4;strokeColor=#82b366;" parent="1" vertex="1">
          <mxGeometry x="240" y="440" width="100" height="40" as="geometry" />
        </mxCell>
        <mxCell id="WA9UghRw6gRbrNqhcR1E-40" value="Quote Line Item" style="whiteSpace=wrap;html=1;align=center;fillColor=#d5e8d4;strokeColor=#82b366;" parent="1" vertex="1">
          <mxGeometry x="240" y="560" width="100" height="40" as="geometry" />
        </mxCell>
        <mxCell id="WA9UghRw6gRbrNqhcR1E-41" value="" style="fontSize=12;html=1;endArrow=ERzeroToMany;startArrow=ERzeroToOne;rounded=1;strokeColor=#B20000;jumpStyle=arc;orthogonal=0;snapToPoint=0;exitX=0.5;exitY=1;exitDx=0;exitDy=0;entryX=0.5;entryY=0;entryDx=0;entryDy=0;fillColor=#e51400;strokeWidth=2;" parent="1" source="WA9UghRw6gRbrNqhcR1E-39" target="WA9UghRw6gRbrNqhcR1E-40" edge="1">
          <mxGeometry x="-0.9286" width="100" height="100" relative="1" as="geometry">
            <mxPoint x="300" y="500" as="sourcePoint" />
            <mxPoint x="330" y="582.5" as="targetPoint" />
            <mxPoint as="offset" />
          </mxGeometry>
        </mxCell>
        <mxCell id="WA9UghRw6gRbrNqhcR1E-42" value="" style="edgeStyle=orthogonalEdgeStyle;fontSize=12;html=1;endArrow=ERzeroToMany;startArrow=ERmandOne;rounded=1;strokeColor=#6c8ebf;jumpStyle=arc;orthogonal=0;snapToPoint=0;entryX=0.5;entryY=0;entryDx=0;entryDy=0;exitX=0;exitY=0.75;exitDx=0;exitDy=0;startFill=0;fillColor=#dae8fc;gradientColor=#7ea6e0;strokeWidth=2;" parent="1" source="C-vyLk0tnHw3VtMMgP7b-2" target="WA9UghRw6gRbrNqhcR1E-39" edge="1">
          <mxGeometry x="-0.9286" width="100" height="100" relative="1" as="geometry">
            <mxPoint x="530" y="405" as="sourcePoint" />
            <mxPoint x="150" y="450" as="targetPoint" />
            <mxPoint as="offset" />
          </mxGeometry>
        </mxCell>
        <mxCell id="WA9UghRw6gRbrNqhcR1E-43" value="" style="fontSize=12;html=1;endArrow=ERzeroToMany;startArrow=ERmandOne;rounded=1;strokeColor=#B20000;jumpStyle=arc;orthogonal=0;snapToPoint=0;entryX=0;entryY=0.5;entryDx=0;entryDy=0;exitX=1;exitY=0.5;exitDx=0;exitDy=0;startFill=0;fillColor=#e51400;strokeWidth=2;" parent="1" source="WA9UghRw6gRbrNqhcR1E-34" target="WA9UghRw6gRbrNqhcR1E-39" edge="1">
          <mxGeometry x="-0.9286" width="100" height="100" relative="1" as="geometry">
            <mxPoint x="640" y="540" as="sourcePoint" />
            <mxPoint x="410" y="570" as="targetPoint" />
            <mxPoint as="offset" />
          </mxGeometry>
        </mxCell>
        <mxCell id="WA9UghRw6gRbrNqhcR1E-44" value="Contract" style="whiteSpace=wrap;html=1;align=center;fillColor=#d5e8d4;strokeColor=#82b366;" parent="1" vertex="1">
          <mxGeometry x="390" y="440" width="100" height="40" as="geometry" />
        </mxCell>
        <mxCell id="WA9UghRw6gRbrNqhcR1E-58" value="" style="edgeStyle=orthogonalEdgeStyle;rounded=1;jumpStyle=arc;orthogonalLoop=1;jettySize=auto;html=1;strokeColor=#6c8ebf;strokeWidth=2;startArrow=ERzeroToOne;startFill=0;endArrow=ERzeroToMany;endFill=0;fontSize=12;fillColor=#dae8fc;gradientColor=#7ea6e0;" parent="1" source="WA9UghRw6gRbrNqhcR1E-47" target="WA9UghRw6gRbrNqhcR1E-48" edge="1">
          <mxGeometry relative="1" as="geometry" />
        </mxCell>
        <mxCell id="WA9UghRw6gRbrNqhcR1E-59" value="Rollup" style="edgeLabel;html=1;align=center;verticalAlign=middle;resizable=0;points=[];" parent="WA9UghRw6gRbrNqhcR1E-58" vertex="1" connectable="0">
          <mxGeometry x="-0.075" y="-1" relative="1" as="geometry">
            <mxPoint as="offset" />
          </mxGeometry>
        </mxCell>
        <mxCell id="WA9UghRw6gRbrNqhcR1E-47" value="Order" style="whiteSpace=wrap;html=1;align=center;fillColor=#dae8fc;strokeColor=#6c8ebf;" parent="1" vertex="1">
          <mxGeometry x="532.5" y="440" width="100" height="40" as="geometry" />
        </mxCell>
        <mxCell id="WA9UghRw6gRbrNqhcR1E-48" value="Order Product" style="whiteSpace=wrap;html=1;align=center;fillColor=#dae8fc;strokeColor=#6c8ebf;" parent="1" vertex="1">
          <mxGeometry x="532.5" y="560" width="100" height="40" as="geometry" />
        </mxCell>
        <mxCell id="WA9UghRw6gRbrNqhcR1E-53" value="" style="edgeStyle=orthogonalEdgeStyle;fontSize=12;html=1;endArrow=ERzeroToMany;startArrow=ERmandOne;rounded=1;strokeColor=#6c8ebf;jumpStyle=arc;orthogonal=0;snapToPoint=0;entryX=0.5;entryY=0;entryDx=0;entryDy=0;startFill=0;fillColor=#dae8fc;gradientColor=#7ea6e0;strokeWidth=2;" parent="1" target="WA9UghRw6gRbrNqhcR1E-44" edge="1">
          <mxGeometry x="-0.9286" width="100" height="100" relative="1" as="geometry">
            <mxPoint x="520" y="390" as="sourcePoint" />
            <mxPoint x="300" y="450" as="targetPoint" />
            <mxPoint as="offset" />
          </mxGeometry>
        </mxCell>
        <mxCell id="WA9UghRw6gRbrNqhcR1E-54" value="" style="fontSize=12;html=1;endArrow=ERzeroToMany;startArrow=ERzeroToOne;rounded=1;strokeColor=#6c8ebf;jumpStyle=arc;orthogonal=0;snapToPoint=0;exitX=0;exitY=0.5;exitDx=0;exitDy=0;entryX=1;entryY=0.5;entryDx=0;entryDy=0;fillColor=#dae8fc;gradientColor=#7ea6e0;strokeWidth=2;" parent="1" source="WA9UghRw6gRbrNqhcR1E-44" target="WA9UghRw6gRbrNqhcR1E-39" edge="1">
          <mxGeometry x="-0.9286" width="100" height="100" relative="1" as="geometry">
            <mxPoint x="390" y="470" as="sourcePoint" />
            <mxPoint x="390" y="550" as="targetPoint" />
            <mxPoint as="offset" />
          </mxGeometry>
        </mxCell>
        <mxCell id="WA9UghRw6gRbrNqhcR1E-56" value="" style="fontSize=12;html=1;endArrow=ERzeroToMany;startArrow=ERzeroToOne;rounded=1;strokeColor=#6c8ebf;jumpStyle=arc;orthogonal=0;snapToPoint=0;exitX=1;exitY=0.5;exitDx=0;exitDy=0;entryX=0;entryY=0.5;entryDx=0;entryDy=0;fillColor=#dae8fc;gradientColor=#7ea6e0;strokeWidth=2;" parent="1" source="WA9UghRw6gRbrNqhcR1E-44" target="WA9UghRw6gRbrNqhcR1E-47" edge="1">
          <mxGeometry x="-0.9286" width="100" height="100" relative="1" as="geometry">
            <mxPoint x="410" y="470" as="sourcePoint" />
            <mxPoint x="350" y="470" as="targetPoint" />
            <mxPoint as="offset" />
          </mxGeometry>
        </mxCell>
        <mxCell id="WA9UghRw6gRbrNqhcR1E-57" value="" style="fontSize=12;html=1;endArrow=ERzeroToMany;startArrow=ERmandOne;rounded=1;strokeColor=#6c8ebf;jumpStyle=arc;orthogonal=0;snapToPoint=0;entryX=0.5;entryY=0;entryDx=0;entryDy=0;fillColor=#dae8fc;gradientColor=#7ea6e0;strokeWidth=2;exitX=0.25;exitY=1;exitDx=0;exitDy=0;startFill=0;" parent="1" source="C-vyLk0tnHw3VtMMgP7b-2" target="WA9UghRw6gRbrNqhcR1E-47" edge="1">
          <mxGeometry x="-0.9286" width="100" height="100" relative="1" as="geometry">
            <mxPoint x="600" y="400" as="sourcePoint" />
            <mxPoint x="560" y="470" as="targetPoint" />
            <mxPoint as="offset" />
          </mxGeometry>
        </mxCell>
        <mxCell id="WA9UghRw6gRbrNqhcR1E-62" value="" style="edgeStyle=orthogonalEdgeStyle;rounded=1;jumpStyle=arc;orthogonalLoop=1;jettySize=auto;html=1;strokeColor=#B20000;strokeWidth=2;startArrow=ERzeroToOne;startFill=0;endArrow=ERzeroToMany;endFill=0;fontSize=12;fillColor=#e51400;gradientColor=#7ea6e0;" parent="1" source="WA9UghRw6gRbrNqhcR1E-64" target="WA9UghRw6gRbrNqhcR1E-65" edge="1">
          <mxGeometry relative="1" as="geometry" />
        </mxCell>
        <mxCell id="WA9UghRw6gRbrNqhcR1E-64" value="Invoice" style="whiteSpace=wrap;html=1;align=center;" parent="1" vertex="1">
          <mxGeometry x="657.5" y="440" width="100" height="40" as="geometry" />
        </mxCell>
        <mxCell id="WA9UghRw6gRbrNqhcR1E-65" value="Invoice Line Item" style="whiteSpace=wrap;html=1;align=center;" parent="1" vertex="1">
          <mxGeometry x="657.5" y="560" width="100" height="40" as="geometry" />
        </mxCell>
        <mxCell id="WA9UghRw6gRbrNqhcR1E-66" value="" style="fontSize=12;html=1;endArrow=ERzeroToMany;startArrow=ERzeroToOne;rounded=1;strokeColor=#6c8ebf;jumpStyle=arc;orthogonal=0;snapToPoint=0;entryX=0.5;entryY=0;entryDx=0;entryDy=0;fillColor=#dae8fc;gradientColor=#7ea6e0;strokeWidth=2;edgeStyle=orthogonalEdgeStyle;" parent="1" target="WA9UghRw6gRbrNqhcR1E-64" edge="1">
          <mxGeometry x="-0.9286" width="100" height="100" relative="1" as="geometry">
            <mxPoint x="640" y="400" as="sourcePoint" />
            <mxPoint x="685" y="450" as="targetPoint" />
            <mxPoint as="offset" />
            <Array as="points">
              <mxPoint x="640" y="420" />
              <mxPoint x="708" y="420" />
            </Array>
          </mxGeometry>
        </mxCell>
        <mxCell id="WA9UghRw6gRbrNqhcR1E-72" style="edgeStyle=orthogonalEdgeStyle;rounded=1;jumpStyle=arc;orthogonalLoop=1;jettySize=auto;html=1;exitX=0;exitY=0.5;exitDx=0;exitDy=0;entryX=0.5;entryY=1;entryDx=0;entryDy=0;strokeColor=#6e8ebf;strokeWidth=2;startArrow=ERmandOne;startFill=0;endArrow=ERzeroToMany;endFill=0;" parent="1" source="WA9UghRw6gRbrNqhcR1E-67" target="WA9UghRw6gRbrNqhcR1E-35" edge="1">
          <mxGeometry relative="1" as="geometry" />
        </mxCell>
        <mxCell id="WA9UghRw6gRbrNqhcR1E-73" style="edgeStyle=orthogonalEdgeStyle;rounded=1;jumpStyle=arc;orthogonalLoop=1;jettySize=auto;html=1;exitX=0.25;exitY=0;exitDx=0;exitDy=0;entryX=0.25;entryY=1;entryDx=0;entryDy=0;strokeColor=#6e8ebf;strokeWidth=2;startArrow=ERmandOne;startFill=0;endArrow=ERzeroToMany;endFill=0;" parent="1" source="WA9UghRw6gRbrNqhcR1E-67" target="WA9UghRw6gRbrNqhcR1E-40" edge="1">
          <mxGeometry relative="1" as="geometry" />
        </mxCell>
        <mxCell id="WA9UghRw6gRbrNqhcR1E-74" style="edgeStyle=orthogonalEdgeStyle;rounded=1;jumpStyle=arc;orthogonalLoop=1;jettySize=auto;html=1;exitX=0.75;exitY=0;exitDx=0;exitDy=0;entryX=0.25;entryY=1;entryDx=0;entryDy=0;strokeColor=#6e8ebf;strokeWidth=2;startArrow=ERmandOne;startFill=0;endArrow=ERzeroToMany;endFill=0;" parent="1" source="WA9UghRw6gRbrNqhcR1E-67" target="WA9UghRw6gRbrNqhcR1E-48" edge="1">
          <mxGeometry relative="1" as="geometry" />
        </mxCell>
        <mxCell id="WA9UghRw6gRbrNqhcR1E-67" value="Product" style="whiteSpace=wrap;html=1;align=center;fillColor=#cce5ff;strokeColor=#36393d;" parent="1" vertex="1">
          <mxGeometry x="200" y="680" width="100" height="40" as="geometry" />
        </mxCell>
        <mxCell id="WA9UghRw6gRbrNqhcR1E-75" style="edgeStyle=orthogonalEdgeStyle;rounded=1;jumpStyle=arc;orthogonalLoop=1;jettySize=auto;html=1;exitX=0.25;exitY=1;exitDx=0;exitDy=0;entryX=0;entryY=0.5;entryDx=0;entryDy=0;strokeColor=#6e8ebf;strokeWidth=2;startArrow=ERmandOne;startFill=0;endArrow=ERzeroToMany;endFill=0;" parent="1" source="WA9UghRw6gRbrNqhcR1E-68" target="WA9UghRw6gRbrNqhcR1E-34" edge="1">
          <mxGeometry relative="1" as="geometry" />
        </mxCell>
        <mxCell id="WA9UghRw6gRbrNqhcR1E-76" style="edgeStyle=orthogonalEdgeStyle;rounded=1;jumpStyle=arc;orthogonalLoop=1;jettySize=auto;html=1;exitX=0.25;exitY=0;exitDx=0;exitDy=0;entryX=0.75;entryY=1;entryDx=0;entryDy=0;strokeColor=#6e8ebf;strokeWidth=2;startArrow=ERmandOne;startFill=0;endArrow=ERzeroToMany;endFill=0;" parent="1" source="WA9UghRw6gRbrNqhcR1E-68" target="WA9UghRw6gRbrNqhcR1E-39" edge="1">
          <mxGeometry relative="1" as="geometry">
            <Array as="points">
              <mxPoint x="558" y="660" />
              <mxPoint x="510" y="660" />
              <mxPoint x="510" y="580" />
              <mxPoint x="360" y="580" />
              <mxPoint x="360" y="500" />
              <mxPoint x="315" y="500" />
            </Array>
          </mxGeometry>
        </mxCell>
        <mxCell id="WA9UghRw6gRbrNqhcR1E-77" style="edgeStyle=orthogonalEdgeStyle;rounded=1;jumpStyle=arc;orthogonalLoop=1;jettySize=auto;html=1;exitX=1;exitY=0.5;exitDx=0;exitDy=0;entryX=1;entryY=0.5;entryDx=0;entryDy=0;strokeColor=#6e8ebf;strokeWidth=2;startArrow=ERmandOne;startFill=0;endArrow=ERzeroToMany;endFill=0;" parent="1" source="WA9UghRw6gRbrNqhcR1E-68" target="WA9UghRw6gRbrNqhcR1E-47" edge="1">
          <mxGeometry relative="1" as="geometry">
            <Array as="points">
              <mxPoint x="653" y="700" />
              <mxPoint x="653" y="460" />
            </Array>
          </mxGeometry>
        </mxCell>
        <mxCell id="WA9UghRw6gRbrNqhcR1E-68" value="Pricebook" style="whiteSpace=wrap;html=1;align=center;fillColor=#cce5ff;strokeColor=#36393d;" parent="1" vertex="1">
          <mxGeometry x="532.5" y="680" width="100" height="40" as="geometry" />
        </mxCell>
        <mxCell id="WA9UghRw6gRbrNqhcR1E-69" value="Pricebook Entry" style="whiteSpace=wrap;html=1;align=center;fillColor=#cce5ff;strokeColor=#36393d;" parent="1" vertex="1">
          <mxGeometry x="370" y="680" width="100" height="40" as="geometry" />
        </mxCell>
        <mxCell id="WA9UghRw6gRbrNqhcR1E-70" value="" style="fontSize=12;html=1;endArrow=ERzeroToMany;startArrow=ERzeroToOne;rounded=1;strokeColor=#6c8ebf;jumpStyle=arc;orthogonal=0;snapToPoint=0;exitX=1;exitY=0.5;exitDx=0;exitDy=0;entryX=0;entryY=0.5;entryDx=0;entryDy=0;fillColor=#dae8fc;gradientColor=#7ea6e0;strokeWidth=2;" parent="1" source="WA9UghRw6gRbrNqhcR1E-67" target="WA9UghRw6gRbrNqhcR1E-69" edge="1">
          <mxGeometry x="-0.9286" width="100" height="100" relative="1" as="geometry">
            <mxPoint x="370" y="670" as="sourcePoint" />
            <mxPoint x="320" y="670" as="targetPoint" />
            <mxPoint as="offset" />
          </mxGeometry>
        </mxCell>
        <mxCell id="WA9UghRw6gRbrNqhcR1E-71" value="" style="fontSize=12;html=1;endArrow=ERzeroToMany;startArrow=ERzeroToOne;rounded=1;strokeColor=#6c8ebf;jumpStyle=arc;orthogonal=0;snapToPoint=0;exitX=0;exitY=0.5;exitDx=0;exitDy=0;entryX=1;entryY=0.5;entryDx=0;entryDy=0;fillColor=#dae8fc;gradientColor=#7ea6e0;strokeWidth=2;" parent="1" source="WA9UghRw6gRbrNqhcR1E-68" target="WA9UghRw6gRbrNqhcR1E-69" edge="1">
          <mxGeometry x="-0.9286" width="100" height="100" relative="1" as="geometry">
            <mxPoint x="310" y="710" as="sourcePoint" />
            <mxPoint x="390" y="710" as="targetPoint" />
            <mxPoint as="offset" />
          </mxGeometry>
        </mxCell>
        <mxCell id="WA9UghRw6gRbrNqhcR1E-78" value="" style="edgeStyle=orthogonalEdgeStyle;rounded=1;jumpStyle=arc;orthogonalLoop=1;jettySize=auto;html=1;strokeColor=#B20000;strokeWidth=2;startArrow=ERzeroToOne;startFill=0;endArrow=ERzeroToMany;endFill=0;fontSize=12;fillColor=#e51400;gradientColor=#7ea6e0;" parent="1" source="WA9UghRw6gRbrNqhcR1E-79" target="WA9UghRw6gRbrNqhcR1E-80" edge="1">
          <mxGeometry relative="1" as="geometry" />
        </mxCell>
        <mxCell id="WA9UghRw6gRbrNqhcR1E-79" value="Work Order" style="whiteSpace=wrap;html=1;align=center;fillColor=#ffe6cc;strokeColor=#d79b00;" parent="1" vertex="1">
          <mxGeometry x="1066" y="440" width="100" height="40" as="geometry" />
        </mxCell>
        <mxCell id="WA9UghRw6gRbrNqhcR1E-80" value="Work Order Line Item" style="whiteSpace=wrap;html=1;align=center;fillColor=#ffe6cc;strokeColor=#d79b00;" parent="1" vertex="1">
          <mxGeometry x="1066" y="560" width="100" height="40" as="geometry" />
        </mxCell>
        <mxCell id="WA9UghRw6gRbrNqhcR1E-81" value="" style="fontSize=12;html=1;endArrow=ERzeroToMany;startArrow=ERzeroToOne;rounded=1;strokeColor=#6c8ebf;jumpStyle=arc;orthogonal=0;snapToPoint=0;entryX=0.5;entryY=0;entryDx=0;entryDy=0;fillColor=#dae8fc;gradientColor=#7ea6e0;strokeWidth=2;exitX=1;exitY=0.5;exitDx=0;exitDy=0;edgeStyle=orthogonalEdgeStyle;" parent="1" source="C-vyLk0tnHw3VtMMgP7b-6" target="WA9UghRw6gRbrNqhcR1E-79" edge="1">
          <mxGeometry x="-0.9286" width="100" height="100" relative="1" as="geometry">
            <mxPoint x="970" y="400" as="sourcePoint" />
            <mxPoint x="947.5" y="450" as="targetPoint" />
            <mxPoint as="offset" />
          </mxGeometry>
        </mxCell>
        <mxCell id="WA9UghRw6gRbrNqhcR1E-90" style="edgeStyle=orthogonalEdgeStyle;rounded=1;jumpStyle=arc;orthogonalLoop=1;jettySize=auto;html=1;exitX=0.5;exitY=0;exitDx=0;exitDy=0;entryX=0.5;entryY=1;entryDx=0;entryDy=0;strokeColor=#6e8ebf;strokeWidth=2;startArrow=ERmandOne;startFill=0;endArrow=ERzeroToMany;endFill=0;" parent="1" source="WA9UghRw6gRbrNqhcR1E-83" target="WA9UghRw6gRbrNqhcR1E-87" edge="1">
          <mxGeometry relative="1" as="geometry" />
        </mxCell>
        <mxCell id="WA9UghRw6gRbrNqhcR1E-83" value="Asset" style="whiteSpace=wrap;html=1;align=center;fillColor=#dae8fc;strokeColor=#6c8ebf;" parent="1" vertex="1">
          <mxGeometry x="790" y="560" width="100" height="40" as="geometry" />
        </mxCell>
        <mxCell id="WA9UghRw6gRbrNqhcR1E-126" style="edgeStyle=orthogonalEdgeStyle;rounded=1;jumpStyle=arc;orthogonalLoop=1;jettySize=auto;html=1;exitX=0.5;exitY=0;exitDx=0;exitDy=0;entryX=0.5;entryY=1;entryDx=0;entryDy=0;strokeColor=#6e8ebf;strokeWidth=2;startArrow=ERzeroToOne;startFill=0;endArrow=ERzeroToMany;endFill=0;" parent="1" source="WA9UghRw6gRbrNqhcR1E-87" target="LE-aH9tgaGi0Yq5PgmA7-1" edge="1">
          <mxGeometry relative="1" as="geometry">
            <Array as="points">
              <mxPoint x="840" y="370" />
              <mxPoint x="845" y="370" />
            </Array>
          </mxGeometry>
        </mxCell>
        <mxCell id="WA9UghRw6gRbrNqhcR1E-87" value="Entitlement" style="whiteSpace=wrap;html=1;align=center;fillColor=#ffe6cc;strokeColor=#d79b00;" parent="1" vertex="1">
          <mxGeometry x="790" y="440" width="100" height="40" as="geometry" />
        </mxCell>
        <mxCell id="WA9UghRw6gRbrNqhcR1E-91" value="" style="edgeStyle=orthogonalEdgeStyle;rounded=1;jumpStyle=arc;orthogonalLoop=1;jettySize=auto;html=1;strokeColor=#B20000;strokeWidth=2;startArrow=ERzeroToOne;startFill=0;endArrow=ERzeroToMany;endFill=0;fontSize=12;fillColor=#e51400;gradientColor=#7ea6e0;exitX=1;exitY=1;exitDx=0;exitDy=0;entryX=0.25;entryY=0;entryDx=0;entryDy=0;" parent="1" source="C-vyLk0tnHw3VtMMgP7b-2" target="WA9UghRw6gRbrNqhcR1E-87" edge="1">
          <mxGeometry relative="1" as="geometry">
            <mxPoint x="724.5" y="490" as="sourcePoint" />
            <mxPoint x="724.5" y="570" as="targetPoint" />
          </mxGeometry>
        </mxCell>
        <mxCell id="WA9UghRw6gRbrNqhcR1E-93" value="" style="rounded=0;whiteSpace=wrap;html=1;fillColor=#dae8fc;strokeColor=#6c8ebf;" parent="1" vertex="1">
          <mxGeometry x="10" y="10" width="30" height="10" as="geometry" />
        </mxCell>
        <mxCell id="WA9UghRw6gRbrNqhcR1E-94" value="Sales &amp;amp; Service Objects" style="text;html=1;strokeColor=none;fillColor=none;align=left;verticalAlign=top;whiteSpace=wrap;rounded=0;" parent="1" vertex="1">
          <mxGeometry x="50" width="140" height="20" as="geometry" />
        </mxCell>
        <mxCell id="WA9UghRw6gRbrNqhcR1E-95" value="" style="rounded=0;whiteSpace=wrap;html=1;fillColor=#d5e8d4;strokeColor=#82b366;" parent="1" vertex="1">
          <mxGeometry x="10" y="30" width="30" height="10" as="geometry" />
        </mxCell>
        <mxCell id="WA9UghRw6gRbrNqhcR1E-96" value="Sales Cloud Objects" style="text;html=1;strokeColor=none;fillColor=none;align=left;verticalAlign=top;whiteSpace=wrap;rounded=0;" parent="1" vertex="1">
          <mxGeometry x="50" y="20" width="140" height="20" as="geometry" />
        </mxCell>
        <mxCell id="WA9UghRw6gRbrNqhcR1E-97" value="" style="rounded=0;whiteSpace=wrap;html=1;fillColor=#ffe6cc;strokeColor=#d79b00;" parent="1" vertex="1">
          <mxGeometry x="10" y="50" width="30" height="10" as="geometry" />
        </mxCell>
        <mxCell id="WA9UghRw6gRbrNqhcR1E-98" value="Service Cloud Objects" style="text;html=1;strokeColor=none;fillColor=none;align=left;verticalAlign=top;whiteSpace=wrap;rounded=0;" parent="1" vertex="1">
          <mxGeometry x="50" y="40" width="140" height="20" as="geometry" />
        </mxCell>
        <mxCell id="WA9UghRw6gRbrNqhcR1E-110" style="edgeStyle=orthogonalEdgeStyle;rounded=1;jumpStyle=arc;orthogonalLoop=1;jettySize=auto;html=1;exitX=0.5;exitY=0;exitDx=0;exitDy=0;entryX=0.75;entryY=1;entryDx=0;entryDy=0;strokeColor=#6e8ebf;strokeWidth=2;startArrow=ERzeroToOne;startFill=0;endArrow=ERzeroToMany;endFill=0;" parent="1" source="WA9UghRw6gRbrNqhcR1E-99" target="WA9UghRw6gRbrNqhcR1E-101" edge="1">
          <mxGeometry relative="1" as="geometry" />
        </mxCell>
        <mxCell id="WA9UghRw6gRbrNqhcR1E-99" value="Lead" style="whiteSpace=wrap;html=1;align=center;fillColor=#cce5ff;strokeColor=#36393d;" parent="1" vertex="1">
          <mxGeometry x="250" y="230" width="100" height="40" as="geometry" />
        </mxCell>
        <mxCell id="WA9UghRw6gRbrNqhcR1E-106" style="edgeStyle=orthogonalEdgeStyle;rounded=1;jumpStyle=arc;orthogonalLoop=1;jettySize=auto;html=1;exitX=0.5;exitY=0;exitDx=0;exitDy=0;entryX=0;entryY=0.5;entryDx=0;entryDy=0;strokeColor=#6e8ebf;strokeWidth=2;startArrow=ERmandOne;startFill=0;endArrow=ERzeroToMany;endFill=0;" parent="1" source="WA9UghRw6gRbrNqhcR1E-100" target="WA9UghRw6gRbrNqhcR1E-101" edge="1">
          <mxGeometry relative="1" as="geometry" />
        </mxCell>
        <mxCell id="WA9UghRw6gRbrNqhcR1E-109" style="edgeStyle=orthogonalEdgeStyle;rounded=1;jumpStyle=arc;orthogonalLoop=1;jettySize=auto;html=1;exitX=0.25;exitY=1;exitDx=0;exitDy=0;entryX=0.25;entryY=0;entryDx=0;entryDy=0;strokeColor=#6e8ebf;strokeWidth=2;startArrow=ERzeroToOne;startFill=0;endArrow=ERzeroToMany;endFill=0;" parent="1" source="WA9UghRw6gRbrNqhcR1E-100" target="WA9UghRw6gRbrNqhcR1E-34" edge="1">
          <mxGeometry relative="1" as="geometry" />
        </mxCell>
        <mxCell id="WA9UghRw6gRbrNqhcR1E-111" style="edgeStyle=orthogonalEdgeStyle;rounded=1;jumpStyle=arc;orthogonalLoop=1;jettySize=auto;html=1;exitX=1;exitY=0.5;exitDx=0;exitDy=0;entryX=0;entryY=0.5;entryDx=0;entryDy=0;strokeColor=#6e8ebf;strokeWidth=2;startArrow=ERzeroToOne;startFill=0;endArrow=ERzeroToMany;endFill=0;" parent="1" source="WA9UghRw6gRbrNqhcR1E-100" target="WA9UghRw6gRbrNqhcR1E-99" edge="1">
          <mxGeometry relative="1" as="geometry" />
        </mxCell>
        <mxCell id="WA9UghRw6gRbrNqhcR1E-100" value="Campaign" style="whiteSpace=wrap;html=1;align=center;fillColor=#cce5ff;strokeColor=#36393d;" parent="1" vertex="1">
          <mxGeometry x="80" y="230" width="100" height="40" as="geometry" />
        </mxCell>
        <mxCell id="WA9UghRw6gRbrNqhcR1E-101" value="Campaign Member" style="whiteSpace=wrap;html=1;align=center;fillColor=#cce5ff;strokeColor=#36393d;" parent="1" vertex="1">
          <mxGeometry x="170" y="120" width="100" height="40" as="geometry" />
        </mxCell>
        <mxCell id="WA9UghRw6gRbrNqhcR1E-102" value="Account Contact Relation" style="whiteSpace=wrap;html=1;align=center;fillColor=#cce5ff;strokeColor=#36393d;" parent="1" vertex="1">
          <mxGeometry x="532.5" y="190" width="100" height="40" as="geometry" />
        </mxCell>
        <mxCell id="WA9UghRw6gRbrNqhcR1E-105" value="" style="fontSize=12;html=1;endArrow=ERzeroToMany;startArrow=ERzeroToOne;rounded=1;strokeColor=#6c8ebf;jumpStyle=arc;orthogonal=0;snapToPoint=0;exitX=0.75;exitY=0;exitDx=0;exitDy=0;entryX=0.25;entryY=0;entryDx=0;entryDy=0;fillColor=#dae8fc;gradientColor=#7ea6e0;strokeWidth=2;edgeStyle=orthogonalEdgeStyle;" parent="1" source="WA9UghRw6gRbrNqhcR1E-87" target="WA9UghRw6gRbrNqhcR1E-79" edge="1">
          <mxGeometry x="-0.9286" width="100" height="100" relative="1" as="geometry">
            <mxPoint x="1010" y="460" as="sourcePoint" />
            <mxPoint x="1042.5" y="500" as="targetPoint" />
            <mxPoint as="offset" />
            <Array as="points">
              <mxPoint x="865" y="410" />
              <mxPoint x="1090" y="410" />
            </Array>
          </mxGeometry>
        </mxCell>
        <mxCell id="WA9UghRw6gRbrNqhcR1E-107" style="edgeStyle=orthogonalEdgeStyle;rounded=1;jumpStyle=arc;orthogonalLoop=1;jettySize=auto;html=1;exitX=0;exitY=0.5;exitDx=0;exitDy=0;entryX=1;entryY=0.5;entryDx=0;entryDy=0;strokeColor=#6e8ebf;strokeWidth=2;startArrow=ERzeroToOne;startFill=0;endArrow=ERzeroToMany;endFill=0;" parent="1" source="C-vyLk0tnHw3VtMMgP7b-27" target="WA9UghRw6gRbrNqhcR1E-101" edge="1">
          <mxGeometry relative="1" as="geometry" />
        </mxCell>
        <mxCell id="WA9UghRw6gRbrNqhcR1E-112" style="edgeStyle=orthogonalEdgeStyle;rounded=1;jumpStyle=arc;orthogonalLoop=1;jettySize=auto;html=1;exitX=0;exitY=0.5;exitDx=0;exitDy=0;entryX=1;entryY=0.5;entryDx=0;entryDy=0;strokeColor=#6e8ebf;strokeWidth=2;startArrow=ERzeroToOne;startFill=0;endArrow=ERzeroToMany;endFill=0;" parent="1" source="C-vyLk0tnHw3VtMMgP7b-3" target="WA9UghRw6gRbrNqhcR1E-99" edge="1">
          <mxGeometry relative="1" as="geometry" />
        </mxCell>
        <mxCell id="WA9UghRw6gRbrNqhcR1E-117" value="" style="rounded=0;whiteSpace=wrap;html=1;" parent="1" vertex="1">
          <mxGeometry x="10" y="70" width="30" height="10" as="geometry" />
        </mxCell>
        <mxCell id="WA9UghRw6gRbrNqhcR1E-118" value="Custom Objects" style="text;html=1;strokeColor=none;fillColor=none;align=left;verticalAlign=top;whiteSpace=wrap;rounded=0;" parent="1" vertex="1">
          <mxGeometry x="50" y="60" width="140" height="20" as="geometry" />
        </mxCell>
        <mxCell id="WA9UghRw6gRbrNqhcR1E-119" value="Account Relationship" style="whiteSpace=wrap;html=1;align=center;fillColor=#cce5ff;strokeColor=#36393d;" parent="1" vertex="1">
          <mxGeometry x="400" y="190" width="100" height="40" as="geometry" />
        </mxCell>
        <mxCell id="WA9UghRw6gRbrNqhcR1E-120" style="edgeStyle=orthogonalEdgeStyle;rounded=1;jumpStyle=arc;orthogonalLoop=1;jettySize=auto;html=1;exitX=0.008;exitY=-0.067;exitDx=0;exitDy=0;entryX=0.5;entryY=1;entryDx=0;entryDy=0;strokeColor=#6e8ebf;strokeWidth=2;startArrow=ERzeroToOne;startFill=0;endArrow=ERzeroToMany;endFill=0;exitPerimeter=0;" parent="1" source="C-vyLk0tnHw3VtMMgP7b-3" target="WA9UghRw6gRbrNqhcR1E-119" edge="1">
          <mxGeometry relative="1" as="geometry" />
        </mxCell>
        <mxCell id="WA9UghRw6gRbrNqhcR1E-123" style="edgeStyle=orthogonalEdgeStyle;rounded=1;jumpStyle=arc;orthogonalLoop=1;jettySize=auto;html=1;exitX=0.25;exitY=0;exitDx=0;exitDy=0;entryX=0;entryY=0.5;entryDx=0;entryDy=0;strokeColor=#6e8ebf;strokeWidth=2;startArrow=ERzeroToOne;startFill=0;endArrow=ERzeroToMany;endFill=0;" parent="1" source="WA9UghRw6gRbrNqhcR1E-100" target="WA9UghRw6gRbrNqhcR1E-100" edge="1">
          <mxGeometry relative="1" as="geometry">
            <Array as="points">
              <mxPoint x="105" y="200" />
              <mxPoint x="40" y="200" />
              <mxPoint x="40" y="250" />
            </Array>
          </mxGeometry>
        </mxCell>
        <mxCell id="WA9UghRw6gRbrNqhcR1E-124" style="edgeStyle=orthogonalEdgeStyle;rounded=1;jumpStyle=arc;orthogonalLoop=1;jettySize=auto;html=1;exitX=0.5;exitY=0;exitDx=0;exitDy=0;entryX=0.75;entryY=0;entryDx=0;entryDy=0;strokeColor=#6e8ebf;strokeWidth=2;startArrow=ERzeroToOne;startFill=0;endArrow=ERzeroToMany;endFill=0;" parent="1" source="LE-aH9tgaGi0Yq5PgmA7-1" target="LE-aH9tgaGi0Yq5PgmA7-1" edge="1">
          <mxGeometry relative="1" as="geometry">
            <Array as="points">
              <mxPoint x="845" y="120" />
              <mxPoint x="878" y="120" />
            </Array>
          </mxGeometry>
        </mxCell>
        <mxCell id="WA9UghRw6gRbrNqhcR1E-125" style="edgeStyle=orthogonalEdgeStyle;rounded=1;jumpStyle=arc;orthogonalLoop=1;jettySize=auto;html=1;exitX=1;exitY=0;exitDx=0;exitDy=0;entryX=0.696;entryY=-0.017;entryDx=0;entryDy=0;entryPerimeter=0;strokeColor=#6e8ebf;strokeWidth=2;startArrow=ERzeroToOne;startFill=0;endArrow=ERzeroToMany;endFill=0;" parent="1" source="C-vyLk0tnHw3VtMMgP7b-2" target="C-vyLk0tnHw3VtMMgP7b-2" edge="1">
          <mxGeometry relative="1" as="geometry">
            <Array as="points">
              <mxPoint x="770" y="240" />
              <mxPoint x="694" y="240" />
            </Array>
          </mxGeometry>
        </mxCell>
        <mxCell id="WA9UghRw6gRbrNqhcR1E-127" value="" style="edgeStyle=orthogonalEdgeStyle;rounded=1;jumpStyle=arc;orthogonalLoop=1;jettySize=auto;html=1;strokeColor=#B20000;strokeWidth=2;startArrow=ERzeroToOne;startFill=0;endArrow=ERzeroToMany;endFill=0;fontSize=12;fillColor=#e51400;gradientColor=#7ea6e0;" parent="1" source="WA9UghRw6gRbrNqhcR1E-128" target="WA9UghRw6gRbrNqhcR1E-129" edge="1">
          <mxGeometry relative="1" as="geometry" />
        </mxCell>
        <mxCell id="WA9UghRw6gRbrNqhcR1E-132" style="edgeStyle=orthogonalEdgeStyle;rounded=1;jumpStyle=arc;orthogonalLoop=1;jettySize=auto;html=1;exitX=0;exitY=0.5;exitDx=0;exitDy=0;entryX=1;entryY=0.5;entryDx=0;entryDy=0;strokeColor=#6e8ebf;strokeWidth=2;startArrow=ERzeroToOne;startFill=0;endArrow=ERzeroToMany;endFill=0;" parent="1" source="WA9UghRw6gRbrNqhcR1E-128" target="WA9UghRw6gRbrNqhcR1E-87" edge="1">
          <mxGeometry relative="1" as="geometry" />
        </mxCell>
        <mxCell id="WA9UghRw6gRbrNqhcR1E-128" value="Service Contract" style="whiteSpace=wrap;html=1;align=center;fillColor=#ffe6cc;strokeColor=#d79b00;" parent="1" vertex="1">
          <mxGeometry x="929" y="440" width="100" height="40" as="geometry" />
        </mxCell>
        <mxCell id="WA9UghRw6gRbrNqhcR1E-133" style="edgeStyle=orthogonalEdgeStyle;rounded=1;jumpStyle=arc;orthogonalLoop=1;jettySize=auto;html=1;exitX=0.25;exitY=0;exitDx=0;exitDy=0;entryX=0.75;entryY=1;entryDx=0;entryDy=0;strokeColor=#6e8ebf;strokeWidth=2;startArrow=ERzeroToOne;startFill=0;endArrow=ERzeroToMany;endFill=0;" parent="1" source="WA9UghRw6gRbrNqhcR1E-129" target="WA9UghRw6gRbrNqhcR1E-87" edge="1">
          <mxGeometry relative="1" as="geometry">
            <Array as="points">
              <mxPoint x="954" y="540" />
              <mxPoint x="865" y="540" />
            </Array>
          </mxGeometry>
        </mxCell>
        <mxCell id="WA9UghRw6gRbrNqhcR1E-129" value="Service Contract Line Item" style="whiteSpace=wrap;html=1;align=center;fillColor=#ffe6cc;strokeColor=#d79b00;" parent="1" vertex="1">
          <mxGeometry x="929" y="560" width="100" height="40" as="geometry" />
        </mxCell>
        <mxCell id="WA9UghRw6gRbrNqhcR1E-134" value="Knowledge Article Version" style="whiteSpace=wrap;html=1;align=center;fillColor=#ffe6cc;strokeColor=#d79b00;" parent="1" vertex="1">
          <mxGeometry x="950" y="20" width="100" height="40" as="geometry" />
        </mxCell>
        <mxCell id="WA9UghRw6gRbrNqhcR1E-138" style="edgeStyle=orthogonalEdgeStyle;rounded=1;jumpStyle=arc;orthogonalLoop=1;jettySize=auto;html=1;exitX=0.5;exitY=0;exitDx=0;exitDy=0;entryX=0.5;entryY=1;entryDx=0;entryDy=0;strokeColor=#6e8ebf;strokeWidth=2;startArrow=ERzeroToOne;startFill=0;endArrow=ERzeroToMany;endFill=0;" parent="1" source="WA9UghRw6gRbrNqhcR1E-135" target="WA9UghRw6gRbrNqhcR1E-134" edge="1">
          <mxGeometry relative="1" as="geometry" />
        </mxCell>
        <mxCell id="WA9UghRw6gRbrNqhcR1E-139" style="edgeStyle=orthogonalEdgeStyle;rounded=1;jumpStyle=arc;orthogonalLoop=1;jettySize=auto;html=1;exitX=0.5;exitY=1;exitDx=0;exitDy=0;entryX=0.5;entryY=0;entryDx=0;entryDy=0;strokeColor=#6e8ebf;strokeWidth=2;startArrow=ERzeroToOne;startFill=0;endArrow=ERzeroToMany;endFill=0;" parent="1" source="WA9UghRw6gRbrNqhcR1E-135" target="WA9UghRw6gRbrNqhcR1E-136" edge="1">
          <mxGeometry relative="1" as="geometry" />
        </mxCell>
        <mxCell id="WA9UghRw6gRbrNqhcR1E-135" value="Knowledge Article" style="whiteSpace=wrap;html=1;align=center;fillColor=#ffe6cc;strokeColor=#d79b00;" parent="1" vertex="1">
          <mxGeometry x="950" y="100" width="100" height="40" as="geometry" />
        </mxCell>
        <mxCell id="WA9UghRw6gRbrNqhcR1E-136" value="Case Article" style="whiteSpace=wrap;html=1;align=center;fillColor=#ffe6cc;strokeColor=#d79b00;" parent="1" vertex="1">
          <mxGeometry x="950" y="180" width="100" height="40" as="geometry" />
        </mxCell>
        <mxCell id="WA9UghRw6gRbrNqhcR1E-140" style="edgeStyle=orthogonalEdgeStyle;rounded=1;jumpStyle=arc;orthogonalLoop=1;jettySize=auto;html=1;exitX=1;exitY=0.5;exitDx=0;exitDy=0;entryX=0;entryY=0.25;entryDx=0;entryDy=0;strokeColor=#6e8ebf;strokeWidth=2;startArrow=ERzeroToOne;startFill=0;endArrow=ERzeroToMany;endFill=0;" parent="1" target="WA9UghRw6gRbrNqhcR1E-136" edge="1">
          <mxGeometry relative="1" as="geometry">
            <mxPoint x="910" y="165" as="sourcePoint" />
          </mxGeometry>
        </mxCell>
        <mxCell id="WA9UghRw6gRbrNqhcR1E-141" value="Case Milestone" style="whiteSpace=wrap;html=1;align=center;fillColor=#ffe6cc;strokeColor=#d79b00;" parent="1" vertex="1">
          <mxGeometry x="950" y="230" width="100" height="40" as="geometry" />
        </mxCell>
        <mxCell id="WA9UghRw6gRbrNqhcR1E-144" style="edgeStyle=orthogonalEdgeStyle;rounded=1;jumpStyle=arc;orthogonalLoop=1;jettySize=auto;html=1;exitX=0.5;exitY=0;exitDx=0;exitDy=0;entryX=0.5;entryY=1;entryDx=0;entryDy=0;strokeColor=#6e8ebf;strokeWidth=2;startArrow=ERzeroToOne;startFill=0;endArrow=ERzeroToMany;endFill=0;" parent="1" source="WA9UghRw6gRbrNqhcR1E-142" target="WA9UghRw6gRbrNqhcR1E-141" edge="1">
          <mxGeometry relative="1" as="geometry" />
        </mxCell>
        <mxCell id="WA9UghRw6gRbrNqhcR1E-142" value="Milestone" style="whiteSpace=wrap;html=1;align=center;fillColor=#ffe6cc;strokeColor=#d79b00;" parent="1" vertex="1">
          <mxGeometry x="950" y="310" width="100" height="40" as="geometry" />
        </mxCell>
        <mxCell id="WA9UghRw6gRbrNqhcR1E-143" style="edgeStyle=orthogonalEdgeStyle;rounded=1;jumpStyle=arc;orthogonalLoop=1;jettySize=auto;html=1;exitX=1;exitY=0.5;exitDx=0;exitDy=0;entryX=0;entryY=0.5;entryDx=0;entryDy=0;strokeColor=#6e8ebf;strokeWidth=2;startArrow=ERzeroToOne;startFill=0;endArrow=ERzeroToMany;endFill=0;" parent="1" source="LE-aH9tgaGi0Yq5PgmA7-5" target="WA9UghRw6gRbrNqhcR1E-141" edge="1">
          <mxGeometry relative="1" as="geometry" />
        </mxCell>
      </root>
    </mxGraphModel>
  </diagram>
  <diagram name="Customer-Location" id="4ytXRveV9cyw897L20C0">
    <mxGraphModel dx="2074" dy="1156" grid="1" gridSize="10" guides="1" tooltips="1" connect="1" arrows="1" fold="1" page="1" pageScale="1" pageWidth="1169" pageHeight="827" math="0" shadow="0" extFonts="Permanent Marker^https://fonts.googleapis.com/css?family=Permanent+Marker">
      <root>
        <mxCell id="CmhvrTNcMBjimqKf37Fn-0" />
        <mxCell id="CmhvrTNcMBjimqKf37Fn-1" parent="CmhvrTNcMBjimqKf37Fn-0" />
        <mxCell id="-u2OoO4nTGl-P7kYxH4o-0" value="Location__c" style="whiteSpace=wrap;html=1;align=center;" parent="CmhvrTNcMBjimqKf37Fn-1" vertex="1">
          <mxGeometry x="40" y="320" width="100" height="40" as="geometry" />
        </mxCell>
        <mxCell id="GQBetrYBltcUqU3bHf7h-13" style="edgeStyle=orthogonalEdgeStyle;rounded=1;jumpStyle=arc;orthogonalLoop=1;jettySize=auto;html=1;exitX=0.5;exitY=1;exitDx=0;exitDy=0;strokeColor=#B20000;strokeWidth=2;startArrow=ERmandOne;startFill=0;endArrow=ERzeroToMany;endFill=0;fillColor=#e51400;" parent="CmhvrTNcMBjimqKf37Fn-1" source="-u2OoO4nTGl-P7kYxH4o-1" target="-u2OoO4nTGl-P7kYxH4o-0" edge="1">
          <mxGeometry relative="1" as="geometry" />
        </mxCell>
        <mxCell id="-u2OoO4nTGl-P7kYxH4o-1" value="Account" style="whiteSpace=wrap;html=1;align=center;fillColor=#cce5ff;strokeColor=#36393d;" parent="CmhvrTNcMBjimqKf37Fn-1" vertex="1">
          <mxGeometry x="40" y="160" width="100" height="40" as="geometry" />
        </mxCell>
        <mxCell id="GQBetrYBltcUqU3bHf7h-12" style="edgeStyle=orthogonalEdgeStyle;rounded=1;jumpStyle=arc;orthogonalLoop=1;jettySize=auto;html=1;exitX=0.5;exitY=0;exitDx=0;exitDy=0;entryX=0.5;entryY=1;entryDx=0;entryDy=0;strokeColor=#6e8ebf;strokeWidth=2;startArrow=ERmandOne;startFill=0;endArrow=ERzeroToMany;endFill=0;" parent="CmhvrTNcMBjimqKf37Fn-1" source="GQBetrYBltcUqU3bHf7h-0" target="GQBetrYBltcUqU3bHf7h-2" edge="1">
          <mxGeometry relative="1" as="geometry" />
        </mxCell>
        <mxCell id="GQBetrYBltcUqU3bHf7h-0" value="Location__c" style="whiteSpace=wrap;html=1;align=center;" parent="CmhvrTNcMBjimqKf37Fn-1" vertex="1">
          <mxGeometry x="300" y="320" width="130" height="40" as="geometry" />
        </mxCell>
        <mxCell id="GQBetrYBltcUqU3bHf7h-11" style="edgeStyle=orthogonalEdgeStyle;rounded=1;jumpStyle=arc;orthogonalLoop=1;jettySize=auto;html=1;exitX=0.5;exitY=1;exitDx=0;exitDy=0;entryX=0.5;entryY=0;entryDx=0;entryDy=0;strokeColor=#B20000;strokeWidth=2;startArrow=ERmandOne;startFill=0;endArrow=ERzeroToMany;endFill=0;fillColor=#e51400;" parent="CmhvrTNcMBjimqKf37Fn-1" source="GQBetrYBltcUqU3bHf7h-1" target="GQBetrYBltcUqU3bHf7h-2" edge="1">
          <mxGeometry relative="1" as="geometry" />
        </mxCell>
        <mxCell id="GQBetrYBltcUqU3bHf7h-1" value="Account" style="whiteSpace=wrap;html=1;align=center;fillColor=#cce5ff;strokeColor=#36393d;" parent="CmhvrTNcMBjimqKf37Fn-1" vertex="1">
          <mxGeometry x="300" y="160" width="130" height="40" as="geometry" />
        </mxCell>
        <mxCell id="GQBetrYBltcUqU3bHf7h-2" value="Address_Location__c" style="whiteSpace=wrap;html=1;align=center;" parent="CmhvrTNcMBjimqKf37Fn-1" vertex="1">
          <mxGeometry x="300" y="240" width="130" height="40" as="geometry" />
        </mxCell>
        <mxCell id="GQBetrYBltcUqU3bHf7h-7" value="Account" style="whiteSpace=wrap;html=1;align=center;fillColor=#cce5ff;strokeColor=#36393d;verticalAlign=top;" parent="CmhvrTNcMBjimqKf37Fn-1" vertex="1">
          <mxGeometry x="760" y="160" width="360" height="200" as="geometry" />
        </mxCell>
        <mxCell id="jZ-MMQgxgsMjI3EVoxFv-2" style="edgeStyle=orthogonalEdgeStyle;rounded=1;jumpStyle=arc;orthogonalLoop=1;jettySize=auto;html=1;exitX=0;exitY=0.25;exitDx=0;exitDy=0;entryX=1;entryY=0.75;entryDx=0;entryDy=0;strokeColor=#6e8ebf;strokeWidth=2;startArrow=ERmandOne;startFill=0;endArrow=ERzeroToMany;endFill=0;" parent="CmhvrTNcMBjimqKf37Fn-1" source="GQBetrYBltcUqU3bHf7h-8" target="jZ-MMQgxgsMjI3EVoxFv-0" edge="1">
          <mxGeometry relative="1" as="geometry" />
        </mxCell>
        <mxCell id="GQBetrYBltcUqU3bHf7h-8" value="RT:Billing Account" style="rounded=0;whiteSpace=wrap;html=1;dashed=1;" parent="CmhvrTNcMBjimqKf37Fn-1" vertex="1">
          <mxGeometry x="795" y="210" width="120" height="60" as="geometry" />
        </mxCell>
        <mxCell id="jZ-MMQgxgsMjI3EVoxFv-1" style="edgeStyle=orthogonalEdgeStyle;rounded=1;jumpStyle=arc;orthogonalLoop=1;jettySize=auto;html=1;exitX=0;exitY=0.25;exitDx=0;exitDy=0;entryX=1;entryY=0.25;entryDx=0;entryDy=0;strokeColor=#6e8ebf;strokeWidth=2;startArrow=ERmandOne;startFill=0;endArrow=ERzeroToMany;endFill=0;" parent="CmhvrTNcMBjimqKf37Fn-1" source="GQBetrYBltcUqU3bHf7h-9" target="jZ-MMQgxgsMjI3EVoxFv-0" edge="1">
          <mxGeometry relative="1" as="geometry" />
        </mxCell>
        <mxCell id="GQBetrYBltcUqU3bHf7h-9" value="RT:Service Account" style="rounded=0;whiteSpace=wrap;html=1;dashed=1;" parent="CmhvrTNcMBjimqKf37Fn-1" vertex="1">
          <mxGeometry x="970" y="180" width="120" height="60" as="geometry" />
        </mxCell>
        <mxCell id="GQBetrYBltcUqU3bHf7h-14" value="RT:Customer Account" style="rounded=0;whiteSpace=wrap;html=1;dashed=1;" parent="CmhvrTNcMBjimqKf37Fn-1" vertex="1">
          <mxGeometry x="880" y="290" width="120" height="60" as="geometry" />
        </mxCell>
        <mxCell id="jZ-MMQgxgsMjI3EVoxFv-0" value="Asset" style="whiteSpace=wrap;html=1;align=center;fillColor=#dae8fc;strokeColor=#6c8ebf;" parent="CmhvrTNcMBjimqKf37Fn-1" vertex="1">
          <mxGeometry x="560" y="190" width="100" height="40" as="geometry" />
        </mxCell>
        <mxCell id="jZ-MMQgxgsMjI3EVoxFv-9" style="edgeStyle=orthogonalEdgeStyle;rounded=1;jumpStyle=arc;orthogonalLoop=1;jettySize=auto;html=1;exitX=0.75;exitY=0;exitDx=0;exitDy=0;entryX=0.5;entryY=1;entryDx=0;entryDy=0;strokeColor=#6e8ebf;strokeWidth=2;startArrow=ERzeroToOne;startFill=0;endArrow=ERzeroToMany;endFill=0;" parent="CmhvrTNcMBjimqKf37Fn-1" source="jZ-MMQgxgsMjI3EVoxFv-3" target="GQBetrYBltcUqU3bHf7h-9" edge="1">
          <mxGeometry relative="1" as="geometry" />
        </mxCell>
        <mxCell id="jZ-MMQgxgsMjI3EVoxFv-3" value="Premises__c" style="whiteSpace=wrap;html=1;align=center;verticalAlign=top;" parent="CmhvrTNcMBjimqKf37Fn-1" vertex="1">
          <mxGeometry x="760" y="430" width="360" height="200" as="geometry" />
        </mxCell>
        <mxCell id="jZ-MMQgxgsMjI3EVoxFv-4" value="RT: Premises Unit" style="rounded=0;whiteSpace=wrap;html=1;dashed=1;" parent="CmhvrTNcMBjimqKf37Fn-1" vertex="1">
          <mxGeometry x="795" y="480" width="120" height="60" as="geometry" />
        </mxCell>
        <mxCell id="jZ-MMQgxgsMjI3EVoxFv-7" style="edgeStyle=orthogonalEdgeStyle;rounded=1;jumpStyle=arc;orthogonalLoop=1;jettySize=auto;html=1;exitX=0;exitY=0.5;exitDx=0;exitDy=0;entryX=1;entryY=0.5;entryDx=0;entryDy=0;strokeColor=#6e8ebf;strokeWidth=2;startArrow=ERzeroToOne;startFill=0;endArrow=ERzeroToMany;endFill=0;" parent="CmhvrTNcMBjimqKf37Fn-1" source="jZ-MMQgxgsMjI3EVoxFv-5" target="jZ-MMQgxgsMjI3EVoxFv-4" edge="1">
          <mxGeometry relative="1" as="geometry" />
        </mxCell>
        <mxCell id="jZ-MMQgxgsMjI3EVoxFv-5" value="RT:Premises" style="rounded=0;whiteSpace=wrap;html=1;dashed=1;" parent="CmhvrTNcMBjimqKf37Fn-1" vertex="1">
          <mxGeometry x="980" y="480" width="120" height="60" as="geometry" />
        </mxCell>
        <mxCell id="jZ-MMQgxgsMjI3EVoxFv-6" value="RT:Other Place" style="rounded=0;whiteSpace=wrap;html=1;dashed=1;" parent="CmhvrTNcMBjimqKf37Fn-1" vertex="1">
          <mxGeometry x="880" y="560" width="120" height="60" as="geometry" />
        </mxCell>
        <mxCell id="jZ-MMQgxgsMjI3EVoxFv-8" style="edgeStyle=orthogonalEdgeStyle;rounded=1;jumpStyle=arc;orthogonalLoop=1;jettySize=auto;html=1;exitX=1;exitY=0.75;exitDx=0;exitDy=0;entryX=1;entryY=0.25;entryDx=0;entryDy=0;strokeColor=#6e8ebf;strokeWidth=2;startArrow=ERzeroToOne;startFill=0;endArrow=ERzeroToMany;endFill=0;" parent="CmhvrTNcMBjimqKf37Fn-1" source="jZ-MMQgxgsMjI3EVoxFv-3" target="jZ-MMQgxgsMjI3EVoxFv-3" edge="1">
          <mxGeometry relative="1" as="geometry" />
        </mxCell>
        <mxCell id="agqHkyC4vKBTNa9uoEol-0" value="" style="rounded=0;whiteSpace=wrap;html=1;fillColor=#dae8fc;strokeColor=#6c8ebf;" parent="CmhvrTNcMBjimqKf37Fn-1" vertex="1">
          <mxGeometry x="10" y="10" width="30" height="10" as="geometry" />
        </mxCell>
        <mxCell id="agqHkyC4vKBTNa9uoEol-1" value="Sales &amp;amp; Service Objects" style="text;html=1;strokeColor=none;fillColor=none;align=left;verticalAlign=top;whiteSpace=wrap;rounded=0;" parent="CmhvrTNcMBjimqKf37Fn-1" vertex="1">
          <mxGeometry x="50" width="140" height="20" as="geometry" />
        </mxCell>
        <mxCell id="agqHkyC4vKBTNa9uoEol-2" value="" style="rounded=0;whiteSpace=wrap;html=1;fillColor=#d5e8d4;strokeColor=#82b366;" parent="CmhvrTNcMBjimqKf37Fn-1" vertex="1">
          <mxGeometry x="10" y="30" width="30" height="10" as="geometry" />
        </mxCell>
        <mxCell id="agqHkyC4vKBTNa9uoEol-3" value="Sales Cloud Objects" style="text;html=1;strokeColor=none;fillColor=none;align=left;verticalAlign=top;whiteSpace=wrap;rounded=0;" parent="CmhvrTNcMBjimqKf37Fn-1" vertex="1">
          <mxGeometry x="50" y="20" width="140" height="20" as="geometry" />
        </mxCell>
        <mxCell id="agqHkyC4vKBTNa9uoEol-4" value="" style="rounded=0;whiteSpace=wrap;html=1;fillColor=#ffe6cc;strokeColor=#d79b00;" parent="CmhvrTNcMBjimqKf37Fn-1" vertex="1">
          <mxGeometry x="10" y="50" width="30" height="10" as="geometry" />
        </mxCell>
        <mxCell id="agqHkyC4vKBTNa9uoEol-5" value="Service Cloud Objects" style="text;html=1;strokeColor=none;fillColor=none;align=left;verticalAlign=top;whiteSpace=wrap;rounded=0;" parent="CmhvrTNcMBjimqKf37Fn-1" vertex="1">
          <mxGeometry x="50" y="40" width="140" height="20" as="geometry" />
        </mxCell>
        <mxCell id="agqHkyC4vKBTNa9uoEol-6" value="" style="rounded=0;whiteSpace=wrap;html=1;" parent="CmhvrTNcMBjimqKf37Fn-1" vertex="1">
          <mxGeometry x="10" y="70" width="30" height="10" as="geometry" />
        </mxCell>
        <mxCell id="agqHkyC4vKBTNa9uoEol-7" value="Custom Objects" style="text;html=1;strokeColor=none;fillColor=none;align=left;verticalAlign=top;whiteSpace=wrap;rounded=0;" parent="CmhvrTNcMBjimqKf37Fn-1" vertex="1">
          <mxGeometry x="50" y="60" width="140" height="20" as="geometry" />
        </mxCell>
        <mxCell id="agqHkyC4vKBTNa9uoEol-8" value="Recommended Location Model" style="text;html=1;strokeColor=none;fillColor=none;align=center;verticalAlign=middle;whiteSpace=wrap;rounded=0;fontStyle=1" parent="CmhvrTNcMBjimqKf37Fn-1" vertex="1">
          <mxGeometry x="30" y="130" width="140" height="20" as="geometry" />
        </mxCell>
        <mxCell id="agqHkyC4vKBTNa9uoEol-9" value="De-normalized Location Model" style="text;html=1;strokeColor=none;fillColor=none;align=center;verticalAlign=middle;whiteSpace=wrap;rounded=0;fontStyle=1" parent="CmhvrTNcMBjimqKf37Fn-1" vertex="1">
          <mxGeometry x="300" y="130" width="150" height="20" as="geometry" />
        </mxCell>
        <mxCell id="agqHkyC4vKBTNa9uoEol-10" value="Billing Account Location Model" style="text;html=1;strokeColor=none;fillColor=none;align=center;verticalAlign=middle;whiteSpace=wrap;rounded=0;fontStyle=1" parent="CmhvrTNcMBjimqKf37Fn-1" vertex="1">
          <mxGeometry x="840" y="120" width="200" height="20" as="geometry" />
        </mxCell>
        <mxCell id="agqHkyC4vKBTNa9uoEol-11" value="&lt;h1&gt;Requirements&lt;/h1&gt;&lt;ul&gt;&lt;li&gt;&lt;span style=&quot;background-color: transparent; font-family: Calibri, sans-serif; font-size: 11pt;&quot;&gt;Customers have an average of 2 locations per customer&lt;/span&gt;&lt;/li&gt;&lt;/ul&gt;&lt;p&gt;.&lt;/p&gt;" style="text;html=1;strokeColor=none;fillColor=none;spacing=5;spacingTop=-20;whiteSpace=wrap;overflow=hidden;rounded=0;dashed=1;" parent="CmhvrTNcMBjimqKf37Fn-1" vertex="1">
          <mxGeometry y="400" width="220" height="120" as="geometry" />
        </mxCell>
        <mxCell id="agqHkyC4vKBTNa9uoEol-13" value="&lt;h1&gt;Requirements&lt;/h1&gt;&lt;ul&gt;&lt;li&gt;&lt;font face=&quot;Calibri, sans-serif&quot;&gt;&lt;span style=&quot;font-size: 14.6667px;&quot;&gt;Type ahead address search service is used where license is charged per search&lt;/span&gt;&lt;/font&gt;&lt;/li&gt;&lt;li&gt;&lt;span style=&quot;background-color: transparent; font-family: Calibri, sans-serif; font-size: 11pt;&quot;&gt;Location shared between customer and service provider&lt;/span&gt;&lt;/li&gt;&lt;li&gt;&lt;font face=&quot;Calibri, sans-serif&quot;&gt;&lt;span style=&quot;font-size: 14.6667px;&quot;&gt;does not want to duplicate addresses stored&lt;/span&gt;&lt;/font&gt;&lt;/li&gt;&lt;/ul&gt;&lt;p&gt;.&lt;/p&gt;" style="text;html=1;strokeColor=none;fillColor=none;spacing=5;spacingTop=-20;whiteSpace=wrap;overflow=hidden;rounded=0;dashed=1;" parent="CmhvrTNcMBjimqKf37Fn-1" vertex="1">
          <mxGeometry x="280" y="400" width="300" height="350" as="geometry" />
        </mxCell>
        <mxCell id="agqHkyC4vKBTNa9uoEol-14" value="&lt;h1&gt;Requirements&lt;/h1&gt;&lt;ul&gt;&lt;li&gt;&lt;font face=&quot;Calibri, sans-serif&quot;&gt;&lt;span style=&quot;font-size: 14.6667px;&quot;&gt;Invoice sent to billing address&lt;/span&gt;&lt;/font&gt;&lt;/li&gt;&lt;li&gt;&lt;span style=&quot;background-color: initial;&quot;&gt;&lt;font face=&quot;Calibri, sans-serif&quot;&gt;&lt;span style=&quot;font-size: 14.6667px;&quot;&gt;User of Service at location&lt;/span&gt;&lt;/font&gt;&lt;/span&gt;&lt;/li&gt;&lt;li&gt;&lt;span style=&quot;background-color: initial;&quot;&gt;&lt;font face=&quot;Calibri, sans-serif&quot;&gt;&lt;span style=&quot;font-size: 14.6667px;&quot;&gt;Premises has multiple units&amp;nbsp;&lt;/span&gt;&lt;/font&gt;.&lt;/span&gt;&lt;br&gt;&lt;/li&gt;&lt;/ul&gt;" style="text;html=1;strokeColor=none;fillColor=none;spacing=5;spacingTop=-20;whiteSpace=wrap;overflow=hidden;rounded=0;dashed=1;" parent="CmhvrTNcMBjimqKf37Fn-1" vertex="1">
          <mxGeometry x="760" y="640" width="380" height="120" as="geometry" />
        </mxCell>
        <mxCell id="trmx8sO1UKTWIWmZ9t25-0" value="&lt;h1&gt;Security&lt;/h1&gt;&lt;ol style=&quot;font-size: 14.6667px;&quot;&gt;&lt;li&gt;&lt;span style=&quot;background-color: transparent; font-family: Calibri, sans-serif;&quot;&gt;&lt;font style=&quot;font-size: 14.6667px;&quot;&gt;Use Master-Detail, or&lt;/font&gt;&lt;/span&gt;&lt;/li&gt;&lt;li&gt;&lt;span style=&quot;background-color: transparent; font-family: Calibri, sans-serif;&quot;&gt;&lt;font style=&quot;font-size: 14.6667px;&quot;&gt;Sharing Set using Account lookup, or&lt;/font&gt;&lt;/span&gt;&lt;/li&gt;&lt;li&gt;&lt;span style=&quot;background-color: transparent; font-family: Calibri, sans-serif;&quot;&gt;&lt;font style=&quot;font-size: 14.6667px;&quot;&gt;Apex Managed Sharing - where visibility is based on criteria&lt;/font&gt;&lt;/span&gt;&lt;/li&gt;&lt;/ol&gt;&lt;p style=&quot;font-size: 14.6667px;&quot;&gt;.&lt;/p&gt;" style="text;html=1;strokeColor=none;fillColor=none;spacing=5;spacingTop=-20;whiteSpace=wrap;overflow=hidden;rounded=0;dashed=1;" vertex="1" parent="CmhvrTNcMBjimqKf37Fn-1">
          <mxGeometry y="550" width="250" height="260" as="geometry" />
        </mxCell>
        <mxCell id="trmx8sO1UKTWIWmZ9t25-1" value="&lt;h1&gt;Security&lt;/h1&gt;&lt;ol style=&quot;font-size: 14.6667px;&quot;&gt;&lt;li&gt;&lt;span style=&quot;background-color: transparent; font-family: Calibri, sans-serif; font-size: 11pt;&quot;&gt;Use Master-Detail for Address-Location visibility&lt;/span&gt;&lt;/li&gt;&lt;li&gt;Keep Location Public-Read Only.&lt;/li&gt;&lt;/ol&gt;" style="text;html=1;strokeColor=none;fillColor=none;spacing=5;spacingTop=-20;whiteSpace=wrap;overflow=hidden;rounded=0;dashed=1;" vertex="1" parent="CmhvrTNcMBjimqKf37Fn-1">
          <mxGeometry x="280" y="580" width="300" height="260" as="geometry" />
        </mxCell>
      </root>
    </mxGraphModel>
  </diagram>
  <diagram id="Ov9FDD5SfLeeLCpBNeqF" name="Account-Oppty-Case-Teams">
    <mxGraphModel dx="2074" dy="1156" grid="1" gridSize="10" guides="1" tooltips="1" connect="1" arrows="1" fold="1" page="1" pageScale="1" pageWidth="1169" pageHeight="827" math="0" shadow="0">
      <root>
        <mxCell id="0" />
        <mxCell id="1" parent="0" />
        <mxCell id="RFmVDtgXXXOfPAdRNxtQ-19" style="edgeStyle=orthogonalEdgeStyle;rounded=1;jumpStyle=arc;orthogonalLoop=1;jettySize=auto;html=1;exitX=0.5;exitY=1;exitDx=0;exitDy=0;entryX=0.5;entryY=0;entryDx=0;entryDy=0;strokeColor=#6e8ebf;strokeWidth=2;startArrow=ERzeroToOne;startFill=0;endArrow=ERzeroToMany;endFill=0;" parent="1" source="B0HkHDZg2JXQDpEuzXfi-25" target="RFmVDtgXXXOfPAdRNxtQ-9" edge="1">
          <mxGeometry relative="1" as="geometry" />
        </mxCell>
        <mxCell id="B0HkHDZg2JXQDpEuzXfi-25" value="Opportunity" style="whiteSpace=wrap;html=1;align=center;fillColor=#cce5ff;strokeColor=#36393d;" parent="1" vertex="1">
          <mxGeometry x="220" y="240" width="100" height="40" as="geometry" />
        </mxCell>
        <mxCell id="RFmVDtgXXXOfPAdRNxtQ-1" value="" style="rounded=0;whiteSpace=wrap;html=1;fillColor=#dae8fc;strokeColor=#6c8ebf;" parent="1" vertex="1">
          <mxGeometry x="10" y="10" width="30" height="10" as="geometry" />
        </mxCell>
        <mxCell id="RFmVDtgXXXOfPAdRNxtQ-2" value="Sales &amp;amp; Service Objects" style="text;html=1;strokeColor=none;fillColor=none;align=left;verticalAlign=top;whiteSpace=wrap;rounded=0;" parent="1" vertex="1">
          <mxGeometry x="50" width="140" height="20" as="geometry" />
        </mxCell>
        <mxCell id="RFmVDtgXXXOfPAdRNxtQ-3" value="" style="rounded=0;whiteSpace=wrap;html=1;fillColor=#d5e8d4;strokeColor=#82b366;" parent="1" vertex="1">
          <mxGeometry x="10" y="30" width="30" height="10" as="geometry" />
        </mxCell>
        <mxCell id="RFmVDtgXXXOfPAdRNxtQ-4" value="Sales Cloud Objects" style="text;html=1;strokeColor=none;fillColor=none;align=left;verticalAlign=top;whiteSpace=wrap;rounded=0;" parent="1" vertex="1">
          <mxGeometry x="50" y="20" width="140" height="20" as="geometry" />
        </mxCell>
        <mxCell id="RFmVDtgXXXOfPAdRNxtQ-5" value="" style="rounded=0;whiteSpace=wrap;html=1;fillColor=#ffe6cc;strokeColor=#d79b00;" parent="1" vertex="1">
          <mxGeometry x="10" y="50" width="30" height="10" as="geometry" />
        </mxCell>
        <mxCell id="RFmVDtgXXXOfPAdRNxtQ-6" value="Service Cloud Objects" style="text;html=1;strokeColor=none;fillColor=none;align=left;verticalAlign=top;whiteSpace=wrap;rounded=0;" parent="1" vertex="1">
          <mxGeometry x="50" y="40" width="140" height="20" as="geometry" />
        </mxCell>
        <mxCell id="RFmVDtgXXXOfPAdRNxtQ-7" value="" style="rounded=0;whiteSpace=wrap;html=1;" parent="1" vertex="1">
          <mxGeometry x="10" y="70" width="30" height="10" as="geometry" />
        </mxCell>
        <mxCell id="RFmVDtgXXXOfPAdRNxtQ-8" value="Custom Objects" style="text;html=1;strokeColor=none;fillColor=none;align=left;verticalAlign=top;whiteSpace=wrap;rounded=0;" parent="1" vertex="1">
          <mxGeometry x="50" y="60" width="140" height="20" as="geometry" />
        </mxCell>
        <mxCell id="RFmVDtgXXXOfPAdRNxtQ-9" value="Opportunity Team Member" style="whiteSpace=wrap;html=1;align=center;fillColor=#cce5ff;strokeColor=#36393d;" parent="1" vertex="1">
          <mxGeometry x="220" y="340" width="100" height="40" as="geometry" />
        </mxCell>
        <mxCell id="RFmVDtgXXXOfPAdRNxtQ-10" value="Account Team Member" style="whiteSpace=wrap;html=1;align=center;fillColor=#cce5ff;strokeColor=#36393d;" parent="1" vertex="1">
          <mxGeometry x="380" y="340" width="100" height="40" as="geometry" />
        </mxCell>
        <mxCell id="RFmVDtgXXXOfPAdRNxtQ-11" value="Case Team Member" style="whiteSpace=wrap;html=1;align=center;fillColor=#cce5ff;strokeColor=#36393d;" parent="1" vertex="1">
          <mxGeometry x="520" y="340" width="100" height="40" as="geometry" />
        </mxCell>
        <mxCell id="RFmVDtgXXXOfPAdRNxtQ-20" style="edgeStyle=orthogonalEdgeStyle;rounded=1;jumpStyle=arc;orthogonalLoop=1;jettySize=auto;html=1;exitX=0.5;exitY=1;exitDx=0;exitDy=0;entryX=0.5;entryY=0;entryDx=0;entryDy=0;strokeColor=#6e8ebf;strokeWidth=2;startArrow=ERzeroToOne;startFill=0;endArrow=ERzeroToMany;endFill=0;" parent="1" source="RFmVDtgXXXOfPAdRNxtQ-12" target="RFmVDtgXXXOfPAdRNxtQ-10" edge="1">
          <mxGeometry relative="1" as="geometry" />
        </mxCell>
        <mxCell id="RFmVDtgXXXOfPAdRNxtQ-12" value="Account" style="whiteSpace=wrap;html=1;align=center;fillColor=#cce5ff;strokeColor=#36393d;" parent="1" vertex="1">
          <mxGeometry x="380" y="240" width="100" height="40" as="geometry" />
        </mxCell>
        <mxCell id="RFmVDtgXXXOfPAdRNxtQ-21" style="edgeStyle=orthogonalEdgeStyle;rounded=1;jumpStyle=arc;orthogonalLoop=1;jettySize=auto;html=1;exitX=0.5;exitY=1;exitDx=0;exitDy=0;entryX=0.5;entryY=0;entryDx=0;entryDy=0;strokeColor=#6e8ebf;strokeWidth=2;startArrow=ERzeroToOne;startFill=0;endArrow=ERzeroToMany;endFill=0;" parent="1" source="RFmVDtgXXXOfPAdRNxtQ-13" target="RFmVDtgXXXOfPAdRNxtQ-11" edge="1">
          <mxGeometry relative="1" as="geometry" />
        </mxCell>
        <mxCell id="RFmVDtgXXXOfPAdRNxtQ-13" value="Case" style="whiteSpace=wrap;html=1;align=center;fillColor=#cce5ff;strokeColor=#36393d;" parent="1" vertex="1">
          <mxGeometry x="520" y="240" width="100" height="40" as="geometry" />
        </mxCell>
        <mxCell id="RFmVDtgXXXOfPAdRNxtQ-16" style="edgeStyle=orthogonalEdgeStyle;rounded=1;jumpStyle=arc;orthogonalLoop=1;jettySize=auto;html=1;exitX=0.25;exitY=0;exitDx=0;exitDy=0;entryX=0.5;entryY=1;entryDx=0;entryDy=0;strokeColor=#6e8ebf;strokeWidth=2;startArrow=ERzeroToOne;startFill=0;endArrow=ERzeroToMany;endFill=0;" parent="1" source="RFmVDtgXXXOfPAdRNxtQ-14" target="RFmVDtgXXXOfPAdRNxtQ-9" edge="1">
          <mxGeometry relative="1" as="geometry" />
        </mxCell>
        <mxCell id="RFmVDtgXXXOfPAdRNxtQ-17" style="edgeStyle=orthogonalEdgeStyle;rounded=1;jumpStyle=arc;orthogonalLoop=1;jettySize=auto;html=1;exitX=0.5;exitY=0;exitDx=0;exitDy=0;entryX=0.5;entryY=1;entryDx=0;entryDy=0;strokeColor=#6e8ebf;strokeWidth=2;startArrow=ERzeroToOne;startFill=0;endArrow=ERzeroToMany;endFill=0;" parent="1" source="RFmVDtgXXXOfPAdRNxtQ-14" target="RFmVDtgXXXOfPAdRNxtQ-10" edge="1">
          <mxGeometry relative="1" as="geometry" />
        </mxCell>
        <mxCell id="RFmVDtgXXXOfPAdRNxtQ-18" style="edgeStyle=orthogonalEdgeStyle;rounded=1;jumpStyle=arc;orthogonalLoop=1;jettySize=auto;html=1;exitX=0.75;exitY=0;exitDx=0;exitDy=0;entryX=0.5;entryY=1;entryDx=0;entryDy=0;strokeColor=#6e8ebf;strokeWidth=2;startArrow=ERzeroToOne;startFill=0;endArrow=ERzeroToMany;endFill=0;" parent="1" source="RFmVDtgXXXOfPAdRNxtQ-14" target="RFmVDtgXXXOfPAdRNxtQ-11" edge="1">
          <mxGeometry relative="1" as="geometry" />
        </mxCell>
        <mxCell id="RFmVDtgXXXOfPAdRNxtQ-14" value="User" style="whiteSpace=wrap;html=1;align=center;fillColor=#cce5ff;strokeColor=#36393d;" parent="1" vertex="1">
          <mxGeometry x="380" y="440" width="100" height="40" as="geometry" />
        </mxCell>
        <mxCell id="RFmVDtgXXXOfPAdRNxtQ-23" style="edgeStyle=orthogonalEdgeStyle;rounded=1;jumpStyle=arc;orthogonalLoop=1;jettySize=auto;html=1;exitX=0;exitY=0.5;exitDx=0;exitDy=0;entryX=1;entryY=0.5;entryDx=0;entryDy=0;strokeColor=#6e8ebf;strokeWidth=2;startArrow=ERzeroToOne;startFill=0;endArrow=ERzeroToMany;endFill=0;" parent="1" source="RFmVDtgXXXOfPAdRNxtQ-22" target="RFmVDtgXXXOfPAdRNxtQ-11" edge="1">
          <mxGeometry relative="1" as="geometry" />
        </mxCell>
        <mxCell id="RFmVDtgXXXOfPAdRNxtQ-22" value="Case Team Member" style="whiteSpace=wrap;html=1;align=center;fillColor=#cce5ff;strokeColor=#36393d;" parent="1" vertex="1">
          <mxGeometry x="680" y="340" width="100" height="40" as="geometry" />
        </mxCell>
      </root>
    </mxGraphModel>
  </diagram>
  <diagram id="ZZgUoCD3Yu1h_fplLHX1" name="Skills">
    <mxGraphModel dx="2074" dy="1156" grid="1" gridSize="10" guides="1" tooltips="1" connect="1" arrows="1" fold="1" page="1" pageScale="1" pageWidth="1169" pageHeight="827" math="0" shadow="0">
      <root>
        <mxCell id="0" />
        <mxCell id="1" parent="0" />
      </root>
    </mxGraphModel>
  </diagram>
</mxfile>
